<?xml version="1.0" encoding="UTF-8"?>
<svg version="1.1" viewBox="0 0 1475 1600" width="1280" height="1280" xmlns="http://www.w3.org/2000/svg">
<path transform="translate(629,235)" d="m0 0h174l32 3 19 3 20 6 20 8 16 8 20 11 12 8 16 12 11 9 13 12 24 24 7 8 13 17 9 14 12 21 8 17 9 25 12 41 5 17 2 17 1 79v213l-6 4-3 5v5l5 5 4 6 2 13v21l-3 24-5 7-2 6-2 18-5 19-7 20-6 16-8 17-12 22-11 17-14 19-14 15-7 8-5 4-2 5 6 11 9 12 10 16 17 26 8 12 12 19 13 20 19 29 16 25 19 29 8 13 4 10 1 4v19l-4 10-7 8-9 6-15 5-20 2h-709l-18-2-13-4-10-7-8-8-6-12-1-8 5-13 8-16 11-18 22-33 7-11 20-30 10-16 12-18 12-19 24-36 10-14 6-8-2-6-9-11-13-14-13-17-9-13-9-15-10-18-12-27-12-37-10-38-2-12-1-22 1-149 1-188 2-32 3-16 8-28 8-20 8-18 11-22 12-18 11-15 12-16 12-13 10-10 14-11 19-14 15-10 23-13 19-9 30-12 17-4 26-3zm-108 925-11 2-15 8-10 8-8 8-8 13v2l13 1h170l24 3 15 1h60l24-2 7-2h178l3-1-2-6-10-13-12-14-7-6-8-2h-30l-18 2-11 4-26 13-22 8-23 7-16 7-16 2-17 1h-50l-25-2-15-2-21-7-29-10-30-13-17-7-14-3zm-39 81-21 1-13 3-6 4-8 8-11 16-3 5v2l91 1h496l5-1-3-8-9-13-9-11-8-4-8-2-242-1z" fill="#7C708C"/>
<path transform="translate(470,298)" d="m0 0 4 1 1 6 2 7 5 7 1 8-3 25 1 3-1 16-7 32-3 15-1 7-1 16v9l-2 9h-2l-1 6-2 7v20l6 27 2 6 1 18-1 4 2 8v7l1 8h2l1 6h2v4h2l2 7v7h2l7 30 6 20v4h2l2 8 3 9 5 12v2h2l2 9 1 3h2l5 10 2 8 5 10v2h2l2 4v3h2l5 8 2 5 9 14 3 6 2 19 4 14 5 10 3 8 3 3 3 7 1 4 3 1 4 13 1 2-1 3-7-1-24-5-7-1h-11l-12 2-4 1v2l-11 6-11 9-7 7-8 13-3 8-1 4v24l4 13 6 11 7 9 6 5 13 6 14 3h16l15-2 12-4 11-8 2-3h2v-2h2v-2l6-4h2l-1 4v3l-1 5-3 13-6 7-2 10-3 4v6l-1 1v8l1 2 2 16 2 4-1 11 2 3-1 6-4 8 1 4 2 4-7 3-11 1-2-1v2l-7-1 10 5v2h5l2 2 7 1 3 2v2l9 1 3 2 9 1 10 2 11 2 11-1 3 4-5 1v3l-3 2v4l10 2 7 1 3 2 19 3 7 1 24 3 12 2h44l21-1 3-1 17-2 15-1 21-3 19-5 10-4 8-2 16-8 10-4 28-16 17-11 16-11 17-12 14-11 3-3h2l2-4 6-5 7-8 6-8h2l2-4 7-11 11-18 4-12 8-17 7-15 15-35 12-24 2-12 3-1 2 7v21l-3 24-5 7-2 6-2 18-5 19-7 20-6 16-8 17-12 22-11 17-14 19-14 15-7 8-5 4-2 5 6 11 9 12 10 16 17 26 8 12 12 19 13 20 19 29 16 25 19 29 8 13 4 10 1 4v19l-4 10-7 8-9 6-15 5-20 2h-709l-18-2-13-4-10-7-8-8-6-12-1-8 5-13 8-16 11-18 22-33 7-11 20-30 10-16 12-18 12-19 24-36 10-14 6-8-2-6-9-11-13-14-13-17-9-13-9-15-10-18-12-27-12-37-10-38-2-12-1-22 1-149 1-188 2-32 3-16 8-28 8-20 8-18 11-22 12-18 12-16 4-1 5-8 20-20 7-8 5-5h2l1-3 5-2v-2zm51 862-11 2-15 8-10 8-8 8-8 13v2l13 1h170l24 3 15 1h60l24-2 7-2h178l3-1-2-6-10-13-12-14-7-6-8-2h-30l-18 2-11 4-26 13-22 8-23 7-16 7-16 2-17 1h-50l-25-2-15-2-21-7-29-10-30-13-17-7-14-3zm-39 81-21 1-13 3-6 4-8 8-11 16-3 5v2l91 1h496l5-1-3-8-9-13-9-11-8-4-8-2-242-1z" fill="#6C6874"/>
<path transform="translate(626,312)" d="m0 0h73l48 1 40 2 30 4 23 6 16 6 25 12 12 8 13 10 10 9 11 11 11 15 7 12 9 21 7 27 2 13 1 25-2 29-6 40-8 41-10 35-10 32-6 15-8 17-14 23-10 14-12 14-17 17-13 10-15 9-16 6-21 6-16 3-26 3-27 2h-26l-28-1-29-4-26-5-17-7-11-6-11-8-14-12-11-11-4-6-8-11-9-13-8-13-8-16-2-6h-2l-2-3-1-9h-2l-5-16-13-42-9-37-4-16-5-38-2-4-2-13-2-6-2-13v-10l2-15 3-11 5-26 4-15 8-16 6-10 11-14 25-25 16-12 18-10 23-9 20-6z" fill="#4DC5F3"/>
<path transform="translate(452,1082)" d="m0 0 5 1 11 5 2 1v2l4 1 5 5 7 6v2l5 2 1 3 3 1 5 5 2 4h2l1 3 13 10 5 4 3 1v2h2l1 2 5 3 9 8 6 2 2 5h5v2h3l-1 2-14-3h-23l-11 2-15 8-10 8-7 7-8 13-1 2h183l24 3 15 1h60l24-2 7-2h181l-7-12-12-14-9-10-5-3-6-1h-30l-15 1v-4l13-8 5-2v-2l4-2 1-2 9-5 11-9 12-9 13-10 15-11 19-13 3 1 6 10 9 13 11 17 15 23 8 12 12 19 13 20 19 29 16 25 19 29 8 13 4 10 1 4v19l-4 10-7 8-9 6-15 5-20 2h-709l-18-2-13-4-10-7-8-8-6-12-1-8 5-13 8-16 11-18 22-33 7-11 20-30 10-16 12-18 12-19 24-36 10-14 6-8zm30 159-21 1-13 3-6 4-8 8-11 16-3 5v2l91 1h496l5-1-3-8-9-13-9-11-8-4-8-2-242-1z" fill="#3E2060"/>
<path transform="translate(629,235)" d="m0 0h174l32 3 19 3 20 6 20 8 16 8 20 11 12 8 16 12 11 9 13 12 24 24 7 8 13 17 9 14 12 21 8 17 9 25 12 41 5 17 2 17 1 79v183l-1 24-4 5h-19l-15-2-33-13-16-8-11-7-13-12-7-10-4-12v-10l5-18 11-28 12-27 8-21-14 32-3 6-4 4-8 16-4 10-5 8h-2v2l-2 1-2 4-2-4-4 2-3 6-1 1-15-1-11 1-5-8v-10l8-16 7-17 10-32 3-15 7-25 8-41 6-40 2-29-1-25-3-17-7-26-6-14-9-16-9-12-9-10-10-10-20-15-16-9-24-11-23-7-22-4-17-2-40-2-48-1h-73l-21 3-20 6-23 9-21 12-16 13-23 23-9 12-8 13-6 13-4 15-6 31-3 10-1 11v10l3 16 2 7 1 9 2 4 5 38 9 36 5 21 7 22 8 24-1 3-5-10-3-10v-6h-2l-9-31-4-18v-5h-2l-2-14h-2v-4h-2l-1-6h-2l-2-10-1-9-1-5 1-6-1-15-5-19-3-14v-20l4-13 3-9v-17l1-10 1-5 6-28 4-21 1-15-1-4 3-24-1-7-6-8-1-10-1-2-5 1-3 1v2l-5 3-1 2h-2l-2 4-8 7-7 8-10 10-3 4h-2l-2 5-3 4-4-1 11-14 12-13 10-10 14-11 19-14 15-10 23-13 19-9 30-12 17-4 26-3z" fill="#ADB1B2"/>
<path transform="translate(632,314)" d="m0 0h30l66 2 27 1 29 2 16 3v6l-2 1 2 2-4 2h-7v1l16 3 17 6 15 8 7 4 16 15 6 7v2h2l10 15 8 14 5 10 6 15 4 14 3 25v22l-4 17-3-4-6 12-3 1-2 4-3 1v2l-8 3-5 1h-11l-4-1-19-1-3-1-18-1h-14l-4-1-10-1h-23l-5 1h-11l-21 2-6-1-33 3-10 1h-11l-14 1-11-1h-36l-23 2-8 2-11 4 7 2-3 2-9 3 8 1-2 3-7 1-4 3-7 3-4 3-2-1 1-2-8 4-6 9-5 23-1 6h-1l-1 6-2 2-3 9-1 6 3-1 3 19-1 5v3l3 1 5 18 4 8 6 15 7 10 4 9 7 8 4 7 8 9 10 13 6 8 2 4 3 1 2 4 10 7 5 4 2 5-9-2-12-5-12-9v-2l-4-2-5-3-12-14-8-10-10-13-7-11-6-8-7-12-11-26-4-12v-3h-2l-3-9-2-11-5-21-8-34-4-31-3-23-4-19-1-16 2-13 8-46 6-15 9-16 18-22 17-17 16-12 12-7 15-7 30-10 18-3z" fill="#56E2FD"/>
<path transform="translate(938,636)" d="m0 0 1 4-9 30-7 19-9 19-1 1v10l3 5 1 2 11-1 15 1 3-7 6-2 1 4 2-4h2v-2l4-4v-2h2l2-7 12-24 3-1 2-6 15-34 1 3-12 29-13 30-8 22-3 12v10l4 12 9 12 10 9 11 7 16 8 33 13 15 2h19l3-4 1-24h1v30l-6 4-3 5v5l5 5 4 6 1 8-4-1v7l-3 10-4 7-10 21-1-4 4-10 3-7-3 4-9 21-6 10-5 7-8 6-12 3-7 3h-8l-8 1-4-4 2-1 1-8h-11l-5 2h-4l-1-8v-5l-6-2-4-6h-1l-1 9-3 20-3 6h-2l-3 9-5 8-15 15-7 3-11 5-16 4h-19l-16-4-12-6-10-9-7-11-5-15-1-9v-25l2-12 3-7-1-5-3 3h-3l-2 7-7 4-5 6-3-2-1 3-5 3v9l-2 4-1 5-4 8-7 1h-2v-2l3-3v-21l-1-7-8-5-18-4h-29l-30-1h-19l-20-3-16-5-8-4-5-5v-2l-4-2-5-5-6-9-5-9-3-5-5-8-4-8-7-6-3-3-16-10-11-9-3-2v-2l-4-2-12-12-11-14-5-5-5-10-1-3h-2l-2-7h-2l-7-14 1-4 10 19 7 10 16 22 7 8 8 8 11 9 15 10 17 8 16 4 30 5 15 2 40 1h14l37-3 22-3 21-5 21-7 14-7 14-10 13-12 12-12 8-10 10-14 16-27 9-20 11-33z" fill="#8E8F92"/>
<path transform="translate(981,1085)" d="m0 0 3 1 6 10 9 13 11 17 15 23 8 12 12 19 13 20 19 29 16 25 19 29 1 7-4-4-6-9-5-5-8-15-7-8v-2h-4l-1-3-5-4v-3h-2l-3-3-1 3h-2l-2-6h-4v-2l-7 1-1 4 7 15 3 6 4 6 3 10 1 5 1 14-2 2-3-1 1 3-10 1-14-2-12-5-12-7v-2l-4-2-2-4-3-3-4-8-8-10-11-9-5-2-9-1-35-1-299-1-170 1-14 2-5 1-1 4-6 4-7 7-11 16-4 6-5 1-1 2-8 2h-9l-19-1-5-2-3-5v-2l-6-2-4-2v-2l-3-1-1-6 4-10h2l-1-3h2v-3h2v-3l7-5 1-1v-3l1-4 3-3v-3l8-10h5l1-4 4-4h2v-3l2-1 4-8 6-8 3-5 4-5 2-4h2l1-4 3-3 2-5 2-3h2l2-6h2l-1-3-13 19-13 18-10 14-1 3h-2v3h-2v3l-3 1-1-4h2l1-6 5-7 3-5 3-1 2-5 6-11h2l6-12 6-11 2-1v-5h-2l-1-3 3-3 2-5 10-11 7-2-1-5 4-2h3l-1-3 4-1v-2l6-3v-4l-4 2-6 5-8 2 2-5 7-8 2-4 4 2 9 7 12 8 15 12 12 9 13 10 19 14 4 3 7 1 3 6h5v2h3l-1 2-14-3h-23l-11 2-15 8-10 8-7 7-8 13-1 2h183l24 3 15 1h60l24-2 7-2h181l-7-12-12-14-9-10-5-3-6-1h-30l-15 1v-4l13-8 5-2v-2l4-2 1-2 9-5 11-9 12-9 13-10 15-11z" fill="#211A35"/>
<path transform="translate(1083,839)" d="m0 0 2 2 1 5v21l-3 24-5 7-2 6-2 18-5 19-7 20-6 16-8 17-12 22-11 17-14 19-14 15-7 8-5 4-2 5-1 2-11 7-10 7-19 14-30 23-7 5h-3l-2 4h-3v2l-10 6-6 4h-2v4l-12 4-28 14-22 8-23 7-16 7-16 2-17 1h-50l-25-2-15-2-21-7-29-10-30-13-15-6-1-3h-3v-2l-5 1-2-2-1-4-6-2-10-9-4-2v-2h-2v-2l-4-1-14-11-4-3v-3h-2l-5-5-6-7-5-3v-2l-4-2-8-7-1-2-3-1-2-2-12-6h-5l-8-11-8-8-9-11-12-15-10-15-12-21-8-16-9-20-10-30v-4h2l5 14v5h2l10 18 4 8 10 13 5 5 10 7 4 2 5 3 11 7 10 7 13 9 7 4 11 8 17 12 5 4 9 5 13 8 23 11 17 8 30 11 25 7 36 6 24 3 20 2 21 1h25l34-2 34-5 15-4 27-10 30-14 42-24 17-11 16-11 17-12 14-11 3-3h2l2-4 6-5 7-8 6-8h2l2-4 7-11 11-18 4-12 8-17 7-15 15-35 12-24 2-12z" fill="#4150F4"/>
<path transform="translate(626,312)" d="m0 0h73l48 1 40 2 30 4 23 6 16 6 25 12 12 8 13 10 10 9 11 11 11 15 7 12 9 21 7 27 2 13 1 25-2 29-6 40-8 41-10 35-10 32-6 15-8 17-14 23-10 14-12 14-17 17-13 10-15 9-16 6-21 6-16 3-26 3-27 2h-26l-28-1-29-4-26-5-17-7-11-6-11-8-14-12-11-11-4-6-8-11-9-13-8-13-8-16-2-6h-2l-2-3-1-9h-2l-5-16-4-12 1-4 8 23 11 24 6 8 10 15 8 11 14 17 10 12 4 2 3 2v2l4 2 8 6 14 6 9 3 14 4-1-5-3-3v-2h-2l-9-13-5-5-6-10-8-15-3-10v-9l9-4 1-3h2l1-3 3-1 6 2 9-1 11-1 15 1 4-1 8 1 14 1 10 1h17l3 2v2h5v-2l5-1 11 1h17l5-1 16 1v-2l13-2 10-1 5-1 22-7 14-7 13-6h2v-2l6-3 9-7 13-10 10-9h2l2-5 6-7 6-5 9-15 10-19 6-16 6-21 4-17 2-18 1-26-2-29-2-12-4-15-4-11-2-7-7-15-8-14-7-10-8-11-2-5h-2l-2-5h-2l-5-8-8-8v-2l-4-2-8-7-5-3-22-8-11-3-30-5-29-2-29-1-72-2h-22l-20 2-14 3-30 10-21 11-11 8-11 9-14 14-9 11-10 13-9 17-4 11-8 46-2 13 1 16 5 25 5 41 4 20 6 25 4 17 1 7-2-3-6-22-6-25-4-16-5-38-2-4-2-13-2-6-2-13v-10l2-15 3-11 5-26 4-15 8-16 6-10 11-14 25-25 16-12 18-10 23-9 20-6z" fill="#44AEDD"/>
<path transform="translate(837,862)" d="m0 0h3l1 6-3 7-2 12v25l2 12 5 14 8 11 9 7 10 5 16 4h19l19-5 11-6 6-1 2-4 12-12 7-15h2l2-6 3-20 1-4v-6l3-1 2 5 1 3 6 2 1 10v3l10-3 10 1v8 3l3 1 10-1 6-1 11-4 6-1 6-5h2l2-4 6-10 8-16 5-12 2-2 1 3-4 7-3 9-2 9-12 28-9 19-3 3-12 19-11 17-14 19-1 2h-2l-2 4-11 12-9 9-20 15-27 18-7 3-12 7-17 8-15 5-9 2-21 1-16-1-4-1v-2h10v-1l-15-1v-2l4-1-10-4-9-1-5-2v-2l-5-1v-2h-2l-1-2-7-3-14-7-9-4-5 1-4-3v-2h-10l-5-2-10-2v-2l-9 2-9-2h-4l-8-1-5-1-11-2v-2l-4 1-9-4h-8l-8-5v-4-2l-4-1-7-7-3-8h2l-1-4 1-11 4 1-3-7-1-11 6 2-3-6v-6l-4-1v-3h-2l-1-7 2-4 1-9 1 2 4-1 1-5-4 1 3-7 2 1 1-5 118-1 16-2 9-2h9l1-4 3-6 1-5 1-7 1-5 5-2 1-4 3 2 5-6 5-3 2-1 2-6h3z" fill="#86818C"/>
<path transform="translate(683,236)" d="m0 0 50 1 1 1 12 1 38 2 10 4 18 6 3 3 5 2 7 6 4 4v3h2l2 6 2 5 1 9-3 5h-5v2l-5 2-3 2h-10l1 4h-9l-5 1h-10l-14 1-1 2-6 1v1l-11 1-2 3-56-1h-73l-21 3-20 6-23 9-21 12-16 13-23 23-9 12-8 13-6 13-4 15-6 31-3 10-1 11v10l3 16 2 7 1 9 2 4 5 38 9 36 5 21 7 22 8 24-1 3-5-10-3-10v-6h-2l-9-31-4-18v-5h-2l-2-14h-2v-4h-2l-1-6h-2l-2-10-1-9-1-5 1-6-1-15-5-19-3-14v-20l4-13 3-9v-17l1-10 1-5 6-28 4-21 1-15-1-4 3-24-1-7-6-8-1-10-1-2-5 1-3 1v2l-5 3-1 2h-2l-2 4-8 7-7 8-10 10-3 4h-2l-2 5-3 4-4-1 11-14 12-13 10-10 14-11 19-14 15-10 23-13 19-9 10-4 13-1 5-2 12-3 8-4 12-2 18-2z" fill="#A4A7A9"/>
<path transform="translate(632,314)" d="m0 0h30l66 2 27 1 29 2 16 3v6l-2 1 2 2-4 2h-7v1l16 3 17 6 15 8 7 4 16 15 6 7v2h2l10 15 8 14 5 10 6 15 4 14 3 25v22l-4 17-3-4-6 12-3 1-2 4-3 1v2l-8 3-5 1h-11l-4-1-19-1-3-1-18-1h-14l-4-1-10-1h-23l-5 1h-11l-21 2-6-1-33 3-10 1h-11l-14 1-11-1h-36l-23 2-8 2-11 4 7 2-3 2-9 3 8 1-2 3-7 1-4 3-7 3-4 3-2-1 1-2-8 4-6 9-5 23-1 6h-1l-1 6-2 2-3 9-1 6 3-1 3 19-1 5v3l3 1 5 18 4 8 6 15 7 10 4 9 7 8 4 7 8 9 10 13 6 8 2 4 3 1 2 4 10 7 5 4 2 5-9-2-12-5-12-9v-2l-4-2-5-3-12-14-8-10-10-13-7-11-6-8-7-12-11-26-4-12v-3h-2l-3-9-2-11-5-21-8-34-4-31-3-23-4-19-1-16 2-13 8-46 6-15 9-16 18-22 17-17 16-12 12-7 15-7 30-10 18-3zm-14 13-18 1-14 2-27 9-11 6v2l-5 2-9 7-10 9-15 15-10 14-6 10-6 12-3 10-3 13-5 30-2 7-1 14 2 17 2 9 3 19 1 12v15l4 14 3 3 6 11 4 3 2 5h4v-4l3-1 2-7 2-5 3-15 8-29 6-9 5-5 9-10 8-6 20-9 5-2 10-5 15-3 5 1 11-2 1 3 7 1h20l8-1h13l7-1 16-2h11l17-2h26l-2-5h9l3-1h24l7 1h22l8 2h11l3 1 11 1 10 2 3 4 7 1 16-3 8-4 3-4 4-14v-21l-3-15-8-19-10-17-8-11-7-7-7-8-13-11-15-8-7-3-11-4-23-4-57-2-14-1-5-1-25-1-55-6z" fill="#53D4FA"/>
<path transform="translate(1072,477)" d="m0 0h2l6 17 2 11 1 11 1 79v183l-1 24-4 5h-19l-15-2-33-13-16-8-11-7-13-12-7-10-4-12v-10l5-18 11-28 12-27 13-32 9-21 7-15 15-32 13-31 5-12 11-22 9-15z" fill="#5F8EE2"/>
<path transform="translate(353,518)" d="m0 0 2 4 3 4 3 1 4-8 3-1 6 4v2h2l12 17 9 16 5 7 8 16 11 24 9 19 7 15 5 13 5 12 7 16 8 16 4 7 5 13 2 8 1 11-2 14-3 10-9 14-8 9h-2l-1 3-11 8-7 5-13 5-16 2h-32l-11-1-3 1-1 13-2-3-1 19h-1v-125l1-188z" fill="#4E5A90"/>
<path transform="translate(935,387)" d="m0 0 6 5 7 9 10 15 2 2 4 2 3 4 7 1 1-9h3l2-7v-3-2l-4-1 3-7h2l1 2 4-4 7 1 11 6 5 4v4l4 1v2h2l9 11 5 6 5 5 10 9 8 12 8 7 3 6v4l3 1 3 7h2l-2 5-10 18-11 23-9 22-13 29-9 19-8 18-10 23h-2l-3 9-11 25-3 6-4 4-8 16-4 10-5 8h-2v2l-2 1-2 4-2-4-4 2-3 6-1 1-15-1-11 1-5-8v-10l8-16 7-17 10-32 3-15 7-25 8-41 6-40 2-29-1-25-3-17-2-8 1-4 4 14 3 22v26l-2 27-3 19-8 49v7l1-1 3-13 2-7 5-20 1-10 5-16-1-5 1-5 5-4 1-3h2l1-6-1-3 4-9h2l2-5 2-1 1-4-5-1-5 2-3-7-1-7v-3l-3-1-6-27-5-15-13-27-2-5h-2l-6-9z" fill="#ACB0B2"/>
<path transform="translate(1048,917)" d="m0 0 2 1-9 19-3 3-12 19-11 17-14 19-1 2h-2l-2 4-11 12-9 9-20 15-27 18-7 3-12 7-17 8-15 5-9 2-21 1-16-1-4-1v-2h10v-1l-15-1v-2l4-1-10-4-9-1-5-2v-2l-5-1v-2h-2l-1-2-7-3-14-7-9-4-5 1-4-3v-2h-10l-5-2-10-2v-2l-9 2-9-2h-4l-8-1-5-1-11-2v-2l-4 1-9-4h-8l-8-5v-4-2l-4-1-7-7-3-8h2l-1-4 1-11 4 1-3-7-1-11 6 2-3-6v-6l-4-1v-3h-2l-1-7 2-4 1-9 1 2 4-1 1-5-4 1 3-7 2 1 1-5h12v3l3 2 2 5-2 6h-3l-1 8 5 2v2l8 2 2 2 11 3 7 2 4 1 1 2 8 1h8v2l13-1 5 1 8 3 3-1h6l3 2 11 1 5 2 7 1 1 2 6 1v2l3 1v2l3 1 2 6 6 2 6 3 2 3h3l1-2 4 1-2 6h2v2l9 1 4 1 6 1 4 5 6 1v-3l6 1 8 2 6 1-4 2-4 5-6-1v2l10 2 11 4 7 4 13 3 10-3 5-2 9-1 4 1 8-1 12-6 4 1-4 2v2l7-4 10-1h6l-1 3 6-1 3-4 7-3 5-5 8-7 6-8h2l2-5 6-8h2l2-4 6-8 7-10 10-14 5-8 2-1 8-16z" fill="#80778C"/>
<path transform="translate(470,298)" d="m0 0 4 1 1 6 2 7 5 7 1 8-3 25 1 3-1 16-7 32-3 15-1 7-1 16v9l-2 9h-2l-1 6-2 7v20l4 17-1 4-3-4-4-1-5-8-4 1v-2h-3l-1 3 1 3-8 6-4 6h-5l-1-1v-7h-7l-3 1-1-4-3-2-6-1-3-3-3-1v-3l1-1h-2l-1-4-2-1-1 2-1 3-1 5-7-1-4-8h-2l1 5 1 3-2 6-2-1 2 9-1 5-9-9-5-2h-5l-3 4-2 5-3 2v-18l2-20 7-25 5-16 6-15 8-18 11-22 12-18 12-16 4-1 5-8 20-20 7-8 5-5h2l1-3 5-2v-2z" fill="#726C75"/>
<path transform="translate(586,330)" d="m0 0 5 1 12-1 17 4 3 2v2l4 1v2l5 4 2 7 1 4-4 4v2l4 4-5 3 1 6-11 9-2 3h-2l-2 12-5 5-10 7-6 2-10 7-16 11-9 8-4 4h-2l-2 4-10 8-3 3-7 8-4 5-5 7-3 6-2 2-4 11-4 18-5 14-4 9-2 1-2 3-4 2-2-1-1 2-3-1v-2l-3 1-3-12-3-21-2-12-1-9 1-13 4-17 4-24 3-14 6-14 6-10 7-10 8-10 13-13 12-11 9-6h2v-2l13-7 19-6z" fill="#65ECFE"/>
<path transform="translate(890,834)" d="m0 0h21l10 3 12 6 8 6 9 10 6 13 4 13 1 4v22l-4 15-7 13-8 10-8 7-13 6-16 4h-19l-16-4-12-6-10-9-7-11-5-15-1-9v-25l2-12 4-9 9-11 18-12 16-7z" fill="#F5A72C"/>
<path transform="translate(1083,839)" d="m0 0 2 2 1 5v21l-3 24-5 7-2 6-2 18-5 19-7 20-5 13-3 1-2 6-5 7h-2v3h-2l-1 8-4 9-6 9h-2l-2 5-6 9-6 7-4-2-5 1-4 1-3 2-4-1-9 4-7 3-21 6-16 7-19 10-26 11-13 7-15 8-28 11-15 7-13 4-14 4-15 2-42 3-21 1h-28l-28-2-34-4-16-3-16-4-33-11-19-8-20-9-24-10-14-7-7-2h-14l-5 1v5h-2l-1 5-1 2 2 1 1 3 3 3-5-1-5-3h-5l-8-11-8-8-9-11-12-15-10-15-12-21-8-16-9-20-10-30v-4h2l5 14v5h2l10 18 4 8 10 13 5 5 10 7 4 2 5 3 11 7 10 7 13 9 7 4 11 8 17 12 5 4 9 5 13 8 23 11 17 8 30 11 25 7 36 6 24 3 20 2 21 1h25l34-2 34-5 15-4 27-10 30-14 42-24 17-11 16-11 17-12 14-11 3-3h2l2-4 6-5 7-8 6-8h2l2-4 7-11 11-18 4-12 8-17 7-15 15-35 12-24 2-12z" fill="#5A5AC3"/>
<path transform="translate(565,771)" d="m0 0 6 3v2l4 2 13 10 13 8 3 2v2l4 2 1 3 3 1 8 15 3 3 3 7 6 10 5 7 6 4 5 5v2l6 2 11 4 11 3 16 2h20l33 1h27l18 5 7 5 1 7v21l-4 4-9 3-16 2h-118v6h-3l-2 4 4-1-2 7-2 1-2-1-2 9-1 4 1 3-1 2h2v3l4 1 2 9 2 2-1 3v-2h-5l2 12 2 5-4-1-1 14h-2v-3l-6-2-5-5-1-5-8-16-4-11-1-8 2-9-1-2v-11l-1-2 1-3 4-1 3-2 1-9-2-7v-5l-5-1v-2l-3-1-2-4v-4h-2l-8-20-6-17-6-16-2-3-3-12-6-12-6-20-4-6-2-4-3-1z" fill="#7F7A84"/>
<path transform="translate(356,831)" d="m0 0 4 1 2 10 2 13 2 3 1 7h2l5 15 3 7 6 7 10 21 5 8 3 5 9 13 4 6 6 8 2 2 3 8 11 13 7 10 16 16 8 7 11 9 12 8 6 5 14 10 10 5 19 7 12 3 7 4 4 2v2h5l2 2 7 1 3 2v2l9 1 3 2 9 1 10 2 11 2 11-1 3 4-5 1v3l-3 2v4l10 2 7 1 3 2 19 3 7 1 24 3 12 2h44l21-1 3-1 17-2 15-1 21-3 19-5 10-4 8-2 16-8 2 1-14 8-25 11-24 9-15 4-34 5-36 2h-30l-28-2-6-1-26-3-34-6-28-8-30-11-42-21-14-9-7-4-15-11-14-10-14-9-13-9-12-8-7-4-4-2-10-7-3-1-4-6-9-12-6-12-5-9-2-5h-2l-3-12-2-4v-3h-3l-11-41-1-9 1-31v-15z" fill="#6D6887"/>
<path transform="translate(528,839)" d="m0 0h13l17 3 10 4 14 10 7 10 4 10 3 12v16l-5 19-9 17-9 10-7 4-12 5-14 3h-16l-16-4-14-7-7-7-7-11-4-8-3-11v-24l3-10 7-12 9-10 8-7 11-7 7-3z" fill="#BC7C1E"/>
<path transform="translate(541,742)" d="m0 0 5 5 8 10 9 10 4 7 5 5 4 6 3 10 5 15 4 7 4 14 4 8 6 18 7 17 3 11h2l3 8 2 1v2l5 1 2 9 1 9-2 4-5 3-2-1 1 9v7l1 5-2 6 1 8 4 11 8 16 2 7 9 5 3 8v6l3 3-2 5-5-4-3-1 1 8 4 16-1 2 1 13 1 1v7l-9-2v6h2l-2 5 2-1 1-3 4 1 1 10-4 1 1 3-1 1-20 2-17-3-2-1-9-1-5-2-5-1-2-1v-2l-10-2-2-2-5-1-1-2-9-4-1-2 6 1 2 1v-2h8l10-3v-3l-2-2 1-5 4-9-1-4-1-7 1-6-2-4-2-16-1-2v-8l1-5 2-5 2-3 2-10 5-5 3-13 2-6-1-2 2-4-6 4h-2v2h-2v2h-2l-2 4-8 6-9 4-6 2h-5l4-2 15-6 10-9 8-14 4-10 4-15v-16l-4-16-6-11-4-5-10-7-10-5-12-3-8-1h-13l-13 2 4-3 12-2h11l21 4 10 2 7 2-1-5-4-13-3-3-3-5-2-5-3-3-5-14-3-7-3-10-2-19-3-6-7-10z" fill="#78717F"/>
<path transform="translate(1054,975)" d="m0 0h2l-2 6-9 19-12 21-8 12-14 19-14 15-7 8-5 4-2 5-1 2-11 7-10 7-19 14-30 23-7 5-2-1 3-3h2l3-12 2-4 2-8v-3l-2-1 1-2h-2v-3l-6 1-6-1-7 2-19 1-22 5-21 8-30 8-39 5-35 2-10 1h-42l-34-2-21-4-15-5-12-3-14-5-13-4-5-2-28-6-8-3h-6l-1 5 1 9 1 2-6 6 7 8 1 3-4-2-14-11v-3h-2l-5-5-6-7-5-3v-2l-4-2-8-7-1-2-3-1-5-5-3-2-2-6 2-5h2v-5l5-2h14l12 4 16 8 42 18 25 10 29 9 25 5 43 5 29 1h18l63-4 15-2 21-6 46-19 17-8 8-5 17-8 19-8 17-9 17-7 21-6 8-4 6-2 4 1 3-3h7l2-1v2h3l8-10 6-10h2l2-4 4-7 4-11 1-4h2v-3h2l2-4 4-7z" fill="#4D55DD"/>
<path transform="translate(626,312)" d="m0 0h73l48 1 40 2 30 4 23 6 16 6 25 12 12 8 13 10 10 9 11 11 11 15 7 12 9 21 7 27 2 13 1 25-2 29-6 40-8 41-10 35-10 32-6 15-8 17-14 23-10 14-12 14-17 17-13 10-15 9-16 6-21 6-16 3-26 3-27 2h-26l-28-1-29-4-26-5-17-7-11-6-11-8-14-12-11-11-4-6-8-11-9-13-8-13-8-16-2-6h-2l-2-3-1-9h-2l-5-16-4-12 1-4 8 23 11 24 6 8 10 15 8 11 14 17 10 12 4 2 3 2v2l4 2 8 6 14 6 9 3 7 2 18 6 16 4 6 1h29l2 1h27l4-1h11l13-2 14-2 11-2h9l12-3 11-1 9-4 15-8 5-2 9-6 4-2 7-8 8-6 7-9 4-1 2-4 10-10 4-6 6-6h2l2-5 9-11 5-8 6-11 4-8 12-36 7-22 6-21 4-18 6-47 2-33-2-28-3-23-5-21-5-14-8-14-11-14-14-13-18-13-14-8-15-7-13-5-23-5-28-4-11-2-29-2-29-1-72-2h-22l-20 2-14 3-30 10-21 11-11 8-11 9-14 14-9 11-10 13-9 17-4 11-8 46-2 13 1 16 5 25 5 41 4 20 6 25 4 17 1 7-2-3-6-22-6-25-4-16-5-38-2-4-2-13-2-6-2-13v-10l2-15 3-11 5-26 4-15 8-16 6-10 11-14 25-25 16-12 18-10 23-9 20-6z" fill="#519DCC"/>
<path transform="translate(395,613)" d="m0 0h5v2h5l3 7 8 6 7 10 3 5 7 10 3 6 5 8 10 18 10 23 3 9 1 11v12l-4 14-1 4-3 7-9 10-8 6-11 5-11 3-10 1h-19l-5-5-4-5-3-7 1-7-1-4v-21l1-5-2-5 1-9 1-6 3-13 1-10 1-4v-13l1-1v-10l1-2h2l1-13h2l-3-5-1-4 3-3v-6l3-9 4-3-2-3z" fill="#45548F"/>
<path transform="translate(890,254)" d="m0 0 6 2 16 8 18 10 12 8 16 12 11 9 13 12 24 24 7 8 13 17 9 14 12 21 8 17 9 25 10 35-2 1v3l-3 1-3-4-1-4-2-1-3-9-9-8-8-12-12-11v-2l-4-2-12-14v-2h-2l-1-2-3-1v-4l-4-2-5-3-9-5h-7l-1 5-2-4-2 1-2 6 3 1 2 4-4 8h-3l-1 9h-7l-5-5-3-1-12-18-9-11-12-14-2-5-8-10 3-1 2-3h7l4-2 5 1 1-2 4 1 5 5 10 9 2 1-1-6h-3l-1-4-2-1-2-6-4-4 1-3 5-1 3 1-1-4-4-1-3-4v-2l3-3h-2l-5-9v-2h-2v-2l-2-1-1-5-12-14-3-2v-2l-4-2-9-7-12-15-2-3-1-9z" fill="#BABCBC"/>
<path transform="translate(453,1088)" d="m0 0 4 2 9 7 12 8 15 12 12 9 13 10 19 14 4 3 7 1 3 6h5v2h3l-1 2-14-3h-23l-11 2-15 8-10 8-7 7-8 13-1 2h6l1 2 7 2v3l-1 3-4 2-8 1v2l-3 3-1 2-9 3h-33l-11-3-9-6v-3h-2l-4-6 1-5 4-8 6-8 3-5 4-5 2-4h2l1-4 3-3 2-5 2-3h2l2-6h2l-1-3-13 19-13 18-10 14-1 3h-2v3h-2v3l-3 1-1-4h2l1-6 5-7 3-5 3-1 2-5 6-11h2l6-12 6-11 2-1v-5h-2l-1-3 3-3 2-5 10-11 7-2-1-5 4-2h3l-1-3 4-1v-2l6-3v-4l-4 2-6 5-8 2 2-5 7-8z" fill="#140F22"/>
<path transform="translate(938,636)" d="m0 0 1 4-9 30-7 19-9 19-1 1v10l3 5 1 2 11-1 15 1 3-7 6-2 1 4 2-4h2v-2l4-4v-2h2l2-7 12-24 3-1 2-6 15-34 1 3-12 29-13 30-8 22-3 12v10l4 12 9 12 10 9 11 7 16 8 33 13 15 2h19l3-4 1-24h1v30l-6 4-3 5v6l-1 2-6-2-2-3-13-4-14-2-19-8-11-3-1-3-7-2-8-5-9-7-6-4-6-5-6-9-4-9-4 1-3 4h-6l1 4h-2l-2 4-14 2h-8l-6 2-14 3-2 1h-6l-5 3-9 2-8 5-10 3-21 12-9 3-9 6-7 3-9 4-3 2-15 3-5 2h-3v-3l-5 2 2 2-11-2 2-2 9-3-10-1 3-3 7-2v-2l-9-1-39 3h-35l-17-1-12-2-11-1-15-2-9-1-13-4-16-6-16-10-13-10-4-3v-2l-4-2-12-12-11-14-5-5-5-10-1-3h-2l-2-7h-2l-7-14 1-4 10 19 7 10 16 22 7 8 8 8 11 9 15 10 17 8 16 4 30 5 15 2 40 1h14l37-3 22-3 21-5 21-7 14-7 14-10 13-12 12-12 8-10 10-14 16-27 9-20 11-33z" fill="#979CA1"/>
<path transform="translate(528,262)" d="m0 0h14l26 1h9l8 2 5 3 4 2-1 7 1 3-5 2 1 8-3 3-4 2v2l2 1-1 4-14 11-12 9-9 7-5 2v2l-16 14-4-1-8 8-16 20h-2l-2 5-4 7-6 8-5 12-5 10-3 12-3 19-4 16-2 5-1 10v12l2 14 4 14 2 8 2 4 5 38 9 36 5 21 7 22 8 24-1 3-5-10-3-10v-6h-2l-9-31-4-18v-5h-2l-2-14h-2v-4h-2l-1-6h-2l-2-10-1-9-1-5 1-6-1-15-5-19-3-14v-20l4-13 3-9v-17l1-10 1-5 6-28 4-21 1-15-1-4 3-24-1-7-6-8-1-10-1-2-5 1-3 1v2l-5 3-1 2h-2l-2 4-8 7-7 8-10 10-3 4h-2l-2 5-3 4-4-1 11-14 12-13 10-10 14-11 19-14 15-10 23-13z" fill="#8C8D90"/>
<path transform="translate(981,1085)" d="m0 0 3 1 6 10 9 13 11 17 15 23 8 12 12 19 13 20 19 29 16 25 19 29 1 7-4-4-6-9-5-5-8-15-7-8v-2h-4l-1-3-5-4v-3h-2l-3-3-1 3h-2l-2-6h-4v-2l-7 1-1 4 7 15 3 6 4 6 3 10 1 5 1 14-2 2-3-1 1 3-10 1-14-2-12-5-12-7v-2l-4-2-2-4-3-3-4-8-8-10-11-9-5-2-9-1-35-1-299-1-170 1-14 2-5 1-1 4-6 4-5 4-1-3v-4-2l-2-1-1-4 4-1 2-3 9-3 13-2h13l4 1 4-1h3l16 2 8-1 6 1h33l1-1h8l2 1 16 1h10l1-2v2l15-1 4 1h23l15-1h3 7l7 1 16-1 6 1h80l26-1 14-1 5-2 8 1 20 1 4 1 5-1h8l7 1h46l9 1h25l9 1 21 1 16 1 7 1 2 9 8 7 5 5 5 7 1 4 6 3 16 1 3 2h11l1-3h3v-9l-6-8-3-3-6-4-1-3-5-3v-2l6-3 2-5-1-8-7-15-6-10-8-13-3-6v-2h-2l-7-14-3-4v-3h-2l-3-3-6-12-7-10-2-8-2-6-6-7-4-4v-2l-9 1-7 3-10 6-18 14-28 19h-2l-1 3-4 3-11 3 3-3 11-7h2v-2l4-2 1-2 9-5 11-9 12-9 13-10 15-11z" fill="#22183D"/>
<path transform="translate(1072,477)" d="m0 0h2l6 17 2 11 1 11 1 79v183l-1 24h-1l-1-26-2-17-1-10-1-25-3-34-4-15-3-8-1-11v-4l-6-2-2-5 1-3-3-1 1-2 4-2-1-4-10 1-5-3h-7v2l-4 2-4-1-2-3-4 3-1 5-2-1-3-8h-5l-1-6 1-3h-2l-1 4-5 5 2-6-3-1 7-16 7-15 15-32 13-31 5-12 11-22 9-15z" fill="#669AE6"/>
<path transform="translate(957,440)" d="m0 0 2 2 4 18 2 16v26l-2 27-3 19-8 49v13l-1 5 1 7 4 1 4-6h3l8-11 6-7 2-3v-3l6-3 6-7 5-2v-3l6-4 11-4h4l1-2 6-1 2-3h2l2-5 5-8 7-15 1 3-12 27-14 30-8 18-10 23h-2l-3 9-11 25-3 6-4 4-8 16-4 10-5 8h-2v2l-2 1-2 4-2-4-4 2-3 6-1 1-15-1-11 1-5-8v-10l8-16 7-17 10-32 3-15 7-25 8-41 6-40 2-29-1-25-3-17-2-8z" fill="#A4A7A9"/>
<path transform="translate(594,245)" d="m0 0h18l18 1 34 8 12 3 12 6 7 3 10 4 1 4-4 6-13 4-7 3-25 6-8 1-27 6-14 4-9 5-7 3-15 9-16 8-19 11-20 16-6 7-3 5-11 11-9 12-8 13-6 13-4 15-6 31-3 10-1 11v10l3 16 2 7v7h-1l-6-24-1-10v-12l1-10 4-11 4-22 3-16 5-12 9-18 6-7 4-8h2l2-4 12-14 5-7h2l3-4 4 1 12-11 4-2v-2l6-4 9-7 16-12 9-7 1-3-3-1 1-3 6-2v-10l5-2-2-5 2-5-7-2-4-3-6-1h-16l-25-1h-8l-6 1 4-3 20-9 3-1 23-2h8l9-3z" fill="#96999A"/>
<path transform="translate(947,1116)" d="m0 0h11l11 6 9 10 6 9 3 5 6 11 6 8v2h2l6 11 6 10 3 6 7 10 4 6 1 4v9l-1 2-31 2h-10l-1-1h-13l-1-1-1-12 1-7-4-1v-6l-4-1v-2l-4-2-8-11-13-15-8-6-6-1h-30l-15 1v-4l13-4 8-7 24-16 13-10 7-3z" fill="#141022"/>
<path transform="translate(890,808)" d="m0 0 17 1 11 1 13 4 11 1 12 4 11 6 3 3 7 3 4 2v1h-9v2l5 4v2l5 2 1 3h-5l5 5-1 9-3 13h-2l-2 11-2 2-1 9-3 20-3 6h-2l-3 9-5 8-15 15-2-1 7-7 6-8 7-15 3-12v-22l-3-12-7-16-7-9-7-6-10-6-11-4-4-1h-21l-16 6-11 6-14 10-7 9-4-3-2 3h-3l-2 7-4 1-4-6v-2l-5-2 1-3 4-1-1-3-7-1-3 1-10 2-4 3-4-1-2-1v-2l4-2 10-2 9-5 1-1-2-1-1 3-3-1 3-3 1-2 9-1 2-5 9-6 3-3 8-2v-2l10-6 10-4 15-4z" fill="#92908E"/>
<path transform="translate(617,237)" d="m0 0h19l25 4 23 3 6 3h11l15 3 12 2 22 5 6 2h9l5 2 6 1 8 3 3 7 7 2-5 5-8 5-7 2-1 3-10 3-18 2-2 1-25 3-34 2-27 4-32 4-26 6-23 9-3-1 11-6 11-7 8-3 5-3 22-6 23-5 9-1 20-5 15-6h5l2-4 1-5-10-4-7-3-12-6-12-3-34-8-28-1h-8l-11 3-3 1h-14l1-2 12-3 8-4 12-2z" fill="#9DA2A5"/>
<path transform="translate(670,882)" d="m0 0h113l14 2 1 4v21l-4 4-9 3-16 2h-68l-33-1-20-1-8-2-4-5-1-5v-9l3-10 3-2z" fill="#24193E"/>
<path transform="translate(354,833)" d="m0 0 2 4 5 68 1 5 3 1 4 12 1 11 4 11 5 5 5 4 10 4 11 10 2 1v2l4 2 2 5 5 2 13 12 7 6v2l4 2 2 4 4 2 7 6 8 7 11 8 8 7 2 1v2l5 2 11 9 13 9 15 8 11 6 10 5 22 10 14 5 14 4 27 6 32 4 42 4 19 1h31l28-2 32-4 20-4 21-6 12-5 16-8 6-2-3 3-16 8-17 8-27 10-15 4-34 5-36 2h-30l-28-2-6-1-26-3-34-6-28-8-30-11-42-21-14-9-7-4-15-11-14-10-14-9-13-9-12-8-7-4-4-2-10-7-3-1-4-6-9-12-6-12-5-9-2-5h-2l-3-12-2-4v-3h-3l-11-41-1-9 1-31v-15z" fill="#6064A1"/>
<path transform="translate(470,298)" d="m0 0 4 1 1 6 2 7 5 7 1 8-3 25 1 3-1 16-7 32-3 15-1 7-1 16v9l-2 9h-2l-1 6-2 7v20l4 17-1 4-3-4-4-1-5-8-4-8v-2l-6 1-2-4-3-1-2-2-1-2 1-3-3-7v-11l5-4 1-12 3-11 2-6 2-18 2-12 1-4-1-4 2-7 1-13-1-4 1-3h2l-1-7 1-3-2-6h-5v-2h-2l2-4 2-5 7-9 6-10-2-2-7 2-3 3-2-1 10-9 1-2h2l1-3 5-2v-2z" fill="#78717E"/>
<path transform="translate(1039,937)" d="m0 0 1 2-3 6-3 10-12 20-9 13-5 5-7 9h-2l-2 4-6 5-5 5-13 11-11 7-15 11-15 10-20 12-21 12-12 5-14 7-9 2-13 5-20 4-14 2-21 2-11 1-3 1-31 1h-34l-12-2-26-3-24-4-5-3h-7l-8-3-1-4-3-2 6-1-2-3 7-1v-1l14-2 7 2 10 1 10-1 8 2 14-1 6 2 17 1h27l5 2h70l20-3 9-2 9-1 3-2 19-4 18-7 17-9 8-5 7-3 21-14 19-14 12-11 8-8 6-8h2l2-5 10-13 10-15 13-21z" fill="#776C91"/>
<path transform="translate(353,518)" d="m0 0 2 4 3 4 3 1 4-8 3-1 6 4v2h2l12 17 9 16 5 7 8 16 11 24 9 19 7 15 5 13 4 9-1 3-8-18-7-15-6-11-13-26-6-11-1-3h-2l-6-12-5-8-4-5-2-1h-10l-6-1-2 9-1 9-1 2v41l-1 23 1 2v28l-1 5v13l-1 8v27l-1 6v17l-1 3 1 2 1 14-1 2v20l3 9 10 5 9 2h20l19-3 14-6 8-6 2 1-9 7-7 5-13 5-16 2h-32l-11-1-3 1-1 13-2-3-1 19h-1v-125l1-188z" fill="#6367A1"/>
<path transform="translate(966,1105)" d="m0 0 5 1 2 5 4 2 5 6 5 15 7 11 4 7v3l3 1v2h2l3 6 5 9 2 3v3h2l9 17 10 16 6 13 1 8-3 6-6 2 3 3 3 2v3l4 2 5 3 4 6 3 5-1 8-3 1-1 2-3 1h-8l-4-2-16-1-6-4-2-6-4-5-5-5-8-7-1-9-25-1-14-1v-2h-6v-2l-6-2h-13l-11-1v-2l-5-2-5-5 1-3 10-2 8 2v-3h11l10 1 1 3 1-2 12-3v-2h3l1-4-3-3 3-5h2v6l3-1 2 2-1 10 1 9h13l1 1h10l13-1h18v-11l-3-8-6-7-5-8-6-12-4-6-2-6h-2l-6-9-3-4-4-8-7-10-6-9-7-6-8-4h-11l-6 4-2-1 10-8 6-3 7-3z" fill="#211935"/>
<path transform="translate(972,885)" d="m0 0 4 8 6 2 1 10v3l10-3 10 1v8 3l3 1 7-1 1 6-1 4-6 2v4l4 1 2 5-6 4-5 4h-2l-1 4-1 2 2 1-6 7-5 4-8 5h-2l-2 4-8 5h-11l-2-1-1 3-8 3-9-4-5 2-4-5-5-2-1-3-7-1v-3l-8 1-1-1-33 1-3-1-1-4-2-1v-2l18 4h19l19-5 11-6 6-1 2-4 12-12 7-15h2l2-6 3-20 1-4v-6z" fill="#89868B"/>
<path transform="translate(632,314)" d="m0 0h30l66 2 27 1 29 2 11 2v1h-69l-44 1-14 1-22 1-10 1-15 2-21 1-14 2-27 9-9 5h-2v2l-12 8-13 12h-2l-2 4-9 9-10 14-6 10-6 12-3 10-3 13-5 30-2 7-1 14 2 17 2 9 3 19 1 12v15l4 14 2 10 2 7 3 21 6 17 7 26 4 8 4 11 4 6v3h2l6 10 5 5 10 14 10 13 9 11 7 6 7 9 8 6 5 5 12 9 8 5-2 1-13-4-10-6-8-6v-2l-4-2-5-3-12-14-8-10-10-13-7-11-6-8-7-12-11-26-4-12v-3h-2l-3-9-2-11-5-21-8-34-4-31-3-23-4-19-1-16 2-13 8-46 6-15 9-16 18-22 17-17 16-12 12-7 15-7 30-10 18-3z" fill="#6CD0EA"/>
<path transform="translate(885,281)" d="m0 0 5 4 7 12 4 8-1 13-1 1v12l-1 4-4 1v6l8 10 12 11 9 10 9 11 1 3h2l6 9 2 5h2l13 25 6 15 6 25 2 9 2 1 2 10 2 3v4l5-3 5 2-1 5h-2l-2 5-2 1-3 10 1 3-2 4h-2l-1 4-3 3h-2v9l1 2-5 15-2 13-5 23-3 8-2 8-2-1 1-14 8-49 2-12 2-27v-28l-3-20-3-14h-2l-5-16-5-12-9-16-9-12-9-10-10-10-20-15-16-9-24-11-23-7-22-4-17-2-32-2-1-2 3-2 9-1v-1l18-1 36 1 2 1h10l5 1 5 4 6 2h11l14 1 5 1 7-2 4-11v-6h2l-2-7-4-8z" fill="#A9B1B5"/>
<path transform="translate(638,1237)" d="m0 0 299 1 35 1 13 2 10 9 6 5 7 10 6 14-1 3-12 2-38 1h-51l-111-1h-366l-12-2-1-2h585l4-1-6-12-10-13-4-5-8-4-8-2-242-1h-251l-21 1-13 2 1-3 9-3 10-1z" fill="#7F849E"/>
<path transform="translate(503,275)" d="m0 0 8 1 4 6 8 4 3 4v14l-5 17-2 17-8 17-5 6-4 8h-2l-3 9-6 9-5 7-5 12-5 10-3 12-3 19-4 16-2 5-1 10v12l2 14 4 14 2 8 2 4 5 38 9 36 5 21 7 22 8 24-1 3-5-10-3-10v-6h-2l-9-31-4-18v-5h-2l-2-14h-2v-4h-2l-1-6h-2l-2-10-1-9-1-5 1-6-1-15-5-19-3-14v-20l4-13 3-9v-17l1-10 1-5 6-28 4-21 1-15-1-4 3-24-1-7-6-8-1-10-3-4 4-3 11-1 4-1-1 5 3 4v2l3 1 2 3v8l-3 15v23l-3 10-2 9-4 13 7-16 6-10 6-14 2-12 2-16 3-10 1-8-1-4-6-4-2-5 4-6v-3z" fill="#807A85"/>
<path transform="translate(994,1103)" d="m0 0 4 4 10 16 17 26 8 12 12 19 13 20 19 29 16 25 19 29 1 7-4-4-6-9-5-5-8-15-7-8v-2h-4l-1-3-5-4v-3h-2l-3-3-1 3h-2l-2-6h-4v-2l-7 1-1 4 7 15 3 6 4 6 3 10 1 5-3-3-7-14-7-15-6-10-7-15-6-11-4-8-6-9 1-2h-2l-7-12-5-10-2-6-7-9-5-14-1-6-3-3v-9l-2-5v-5l3-2z" fill="#302547"/>
<path transform="translate(385,1213)" d="m0 0 4 1v2l-4 1-1 5-2 4 1 1h8l5 1 2 3 4 1 2 2 9 3 1-2h8l6 1h10l-1 4-3 1v3l3 1 1 5-2 6-12 17-4 6-5 1-1 2-8 2h-9l-19-1-5-2-3-5v-2l-6-2-4-2v-2l-3-1-1-6 4-10h2l-1-3h2v-3h2v-3l7-5 1-1v-3l1-4 3-3v-3z" fill="#23193E"/>
<path transform="translate(439,327)" d="m0 0 1 4-3 5-2 1v2l-4 3-2 5-1 6-2 5-4 5-5 3-3 6h-2v2l-5 4-3 11-4 9-6 8h-2l-2 3 1 1v6l-2 5-2 1-2 5-1 8v11l1 7 1 8 3 8v5l-4 5v6l1 3-3 3h-2l1 5 1 3-2 6-2-1 2 9-1 5-9-9-5-2h-5l-3 4-2 5-3 2v-18l2-20 7-25 5-16 6-15 8-18 11-22 12-18 12-16 4-1 5-8 5-5z" fill="#797280"/>
<path transform="translate(947,1116)" d="m0 0h11l11 6 9 10 6 9 3 5 6 11 6 8v2h2l6 11 6 10 3 6 7 10 4 6 1 4v9l-1 2-31 2h-10l-1-1h-13l-1-1-1-12 1-7-4-1v-6l-4-2 18 1h9l4 1v-5h2l1-7-3-5-4-2-4-16-3-6-5-4-4-6-8-5-4-6v-2h-15l-2-2-7-1-8 2-7-1 5-5 9-7 7-3z" fill="#160E29"/>
<path transform="translate(594,245)" d="m0 0h18l18 1 34 8 12 3 12 6 7 3 10 4 1 4-4 6-13 4-7 3-25 6-8 1-27 6-14 4-9 5-7 3-15 9-16 8-19 11-20 16-6 7-3 5-11 11-9 12-8 13-6 13-4 15-6 31-3 10-1 11v10l3 16 2 7v7h-1l-6-24-1-10v-12l1-10 4-11 4-22 3-16 5-12 9-18 6-7 4-8h2l2-4 12-14 5-7h2l3-4 4 1 12-11 4-2v-2l6-4 9-7 5-4 9-3 12-7 27-12 22-8 20-6 3-2h7l4-4h2v-2l3-3-5-1-4-4-6-2-11-5-13-4-16-3-14-1h-14l-9 2-1-2 9-3z" fill="#969BA0"/>
<path transform="translate(995,633)" d="m0 0h5l-1 4h-2l-3 9-11 25-3 6-4 4-8 16-4 10-5 8h-2v2l-2 1-2 4-2-4-4 2-3 6-1 1-15-1-11 1-5-8v-10l6-11h3l2-4 2-3 3-1 6-8 5-1v-2l5-3 2-3h2v-2l5-3 1-2h2l1-3 3-1v3h2l3-6 2-3 2-1 3-7 9-6h3l2-4 4-4 1 2 3-1z" fill="#9CA1A5"/>
<path transform="translate(584,786)" d="m0 0 9 5 11 7v2l4 2 1 3 3 1 8 15 3 3 3 7 6 10 5 7 6 4 5 5v2l6 2 11 4 11 3 16 2h20l33 1h27l18 5 7 5v3h-4v-2h-9l-13-2-1-1-26-3h-67l-10 1h-9v2l-18-1-10-3-11-6-6-9-3-7-3-11-4-9-3-10-6-13-4-11-1-7h-2l-1-3-2-1z" fill="#828086"/>
<path transform="translate(626,312)" d="m0 0h73l48 1 40 2 30 4 23 6 16 6 25 12 12 8 13 10 10 9 11 11 11 15 7 12 9 21 7 27 2 13 1 25-2 29-6 40-8 41-10 35-10 32-6 15-8 17-2 1 2-6 4-9 6-16 7-22 6-18 9-35 6-29 5-35 1-12v-28l-2-29-4-23-6-23-2-7h-2l-8-16-7-10-8-10-13-12-18-13-14-8-15-7-13-5-23-5-28-4-11-2-29-2-29-1-72-2h-22l-20 2-14 3-30 10-21 11-11 8-11 9-14 14-9 11-10 13-9 17-4 11-8 46-2 13 1 16 5 25 5 41 4 20 6 25 4 17 1 7-2-3-6-22-6-25-4-16-5-38-2-4-2-13-2-6-2-13v-10l2-15 3-11 5-26 4-15 8-16 6-10 11-14 25-25 16-12 18-10 23-9 20-6z" fill="#66ABD4"/>
<path transform="translate(936,748)" d="m0 0 5 1 2 2 6-1 3-1 4 6h2l1 4-4 5h-6l1 4h-2l-2 4-14 2h-8l-6 2-14 3-2 1h-6l-5 3-9 2-8 5-10 3-21 12-9 3-9 6-7 3-9 4-3 2-15 3-5 2h-3v-3l-5 2 2 2-11-2 2-2 9-3-10-1 3-3 7-2-1-3 17-3 11-1 20-7 10-4 10-5 9-5 10-7h2l2-4 10-7 14-7 6-5 12-6 5-1 8-2z" fill="#959899"/>
<path transform="translate(938,1018)" d="m0 0 4 1-4 2v2l7-4h3v2l2 2-5 5h-2v2l-11 8-7 1-5 5-14 8-10 4-7 1-9 3-8 1-9-1-14-1-6-3v-2l-5-1v-3l10-1-4-5-5-1 1-6 2-5h5l3-3 2-5h5l1-3 4-1 11 4 4 3 13 3 10-3 5-2 9-1 4 1 8-1z" fill="#807A85"/>
<path transform="translate(806,1230)" d="m0 0 9 1 20 1 4 1 5-1h8l7 1h46l9 1h25l9 1 21 1 16 1 7 1 2 9 8 7 5 5 4 9-1 4-5-10-8-10-11-9-5-2-9-1-35-1-299-1-170 1-14 2-5 1-1 4-6 4-5 4-1-3v-4-2l-2-1-1-4 4-1 2-3 9-3 13-2h13l4 1 4-1h3l16 2 8-1 6 1h33l1-1h8l2 1 16 1h10l1-2v2l15-1 4 1h23l15-1h3 7l7 1 16-1 6 1h80l26-1 14-1z" fill="#2F2147"/>
<path transform="translate(670,882)" d="m0 0h113l14 2-1 3-5-2h-28l-8 1-6 1-2 5-5 2-16 3-4 1-12 1v2l-7 1-5 1-2 4h-2v-4l-5 3-2 3h-8l-3-3-11-1-1 3 1 5h5v2l24 1v1h-26l-20-1-8-2-4-5-1-5v-9l3-10 3-2z" fill="#2E2045"/>
<path transform="translate(837,862)" d="m0 0h3l1 6-3 7-2 12v25l2 12 5 14 8 11 3 4-6 2-1 3h-4l-1-2-4-1 2 6 4-1v2l10 3-4 1h-4l1 3-2 1-6-2-5-6-1-5-4-2-2-3-7-1-5-3v-3l-6-1 1-2 3-2v-2l-5-1-2-5v-3h-2v-3h2v-3h-2l-3-5-2-1v-2h2v-2h2l1-4 3-6 1-5 1-7 1-5 5-2 1-4 3 2 5-6 5-3 2-1 2-6h3z" fill="#89868B"/>
<path transform="translate(963,987)" d="m0 0 2 1v2l5 1-1 6-4 4-2 6-8 11-13 3-4 2v-2l3-2-5 1-13 6h-7l-3-1-10 2-11 4-8-1-9-3-5-3-13-5-8-2v-2h6l4-5-2-2 4-1h27l12-3 11-3 7-4 8-2h12l2-1h10l12-6z" fill="#838187"/>
<path transform="translate(757,295)" d="m0 0h2v2l19-2 2 1h11l-1 3 20-1v2h2l1 4h-9l-5 1h-10l-14 1-1 2-6 1v1l-11 1-2 3-56-1h-73l-21 3-20 6-23 9-21 12-16 13-9 9v-3l8-9 13-10 8-6 22-12 11-4 21-8 26-6 46-6 16-2 46-3h18z" fill="#9EA7AD"/>
<path transform="translate(745,1209)" d="m0 0 10 1h20l17 2 2-1 2 1h8l9 4-2 1-2 5-6 2-13 2h-11l-17 1-12-1h-14l-5-1-6-1-1 1h-11l-10-4-4-1-1 3-4 2-10-1-30 1h-19l-12-2-2 1-1-4h2l-2-7 5-2h5l2-1v2h5l1-2h7l6 2v2h7l3 1 8-1 3 1-1 2h2v2l9-1v-2l-4-1 7-4 1 3 2-2 3 1h7l2-2 4-1h40z" fill="#1F1A2E"/>
<path transform="translate(938,636)" d="m0 0 1 4-9 30-7 19-9 19-11 19-8 11-4 7-7 8-7 10-11 9-5 5-12 10-11 5-9 4-6 3-7 1-6 3-12 3-16 3-4 2-9 2-23 2-14 1h-35l-17-1-12-2-11-1-15-2-9-1-13-4-16-6-16-10-13-10-4-3v-2l-4-2-12-12-11-14-5-5-5-10-1-3h-2l-2-7h-2l-7-14 1-4 10 19 7 10 16 22 7 8 8 8 11 9 15 10 17 8 16 4 30 5 15 2 40 1h14l37-3 22-3 21-5 21-7 14-7 14-10 13-12 12-12 8-10 10-14 16-27 9-20 11-33z" fill="#8696A7"/>
<path transform="translate(475,1201)" d="m0 0h177l24 3 15 1h60l24-2 7-2h181l-1 2-17 4-35 1h-25l-44-1-28-1h-11l-21 2-2 1h-36l-1-1h-47v1l-11 1h-11l-4-1h-36l-34-1-10-2h-85l-18-1-11-2z" fill="#382D51"/>
<path transform="translate(428,1156)" d="m0 0h1v6l-6 9 6 2 5 7-1 7 3 1v5l-8 4h-2l-1 7 10 2 10 3 5-1 3-1 1-3 9-4 12 1 1 2 7 2v3l-1 3-4 2-8 1v2l-3 3-1 2-9 3h-33l-11-3-9-6v-3h-2l-4-6 1-5 4-8 6-8 3-5 4-5 2-4h2l1-4 3-3 2-5z" fill="#160E29"/>
<path transform="translate(499,647)" d="m0 0 2 3 7 20 11 24 6 8 10 15 8 11 14 17 10 12 4 2 3 2v2l4 2 8 6 14 6 9 3 7 2 18 6 16 4 9 2 3 5 4 3v2l9 2 25 2v1h-27l-29-4-26-5-17-7-11-6-11-8-14-12-11-11-4-6-8-11-9-13-8-13-8-16-2-6h-2l-2-3-1-9h-2l-5-16-4-12z" fill="#67ABD3"/>
<path transform="translate(453,1088)" d="m0 0 4 2 9 7 12 8 15 12 6 4-3 1-11-8-4-1-3 3-6 1-1 6-14 7-6 1-4 1-1 3h-2v3h-2l-2 4-5 6h-3l-12 18-13 18-10 14-1 3h-2v3h-2v3l-3 1-1-4h2l1-6 5-7 3-5 3-1 2-5 6-11h2l6-12 6-11 2-1v-5h-2l-1-3 3-3 2-5 10-11 7-2-1-5 4-2h3l-1-3 4-1v-2l6-3v-4l-4 2-6 5-8 2 2-5 7-8z" fill="#2C2044"/>
<path transform="translate(954,1110)" d="m0 0 3 1 12 1 2 4 5 5 4 7v3h2l10 15 5 10 6 8 3 6 3 3 3 6 6 10 4 8 5 6 1 6h2l4 7 4 12-2 6-5 3-7-1-6-3h-5l-2 2-3-4h-10l-10-1-4 1h-17l-17-3-3-4 1-2-5 1-6 1-7-3v-3l-4-2v-2h11l10 1 1 3 1-2 12-3v-2h3l1-4-3-3 3-5h2v6l3-1 2 2-1 10 1 9h13l1 1h10l13-1h18v-11l-3-8-6-7-5-8-6-12-4-6-2-6h-2l-6-9-3-4-4-8-7-10-6-9-7-6-8-4h-11l-6 4-2-1 10-8z" fill="#1D1133"/>
<path transform="translate(997,637)" d="m0 0 1 3-12 29-13 30-8 22-3 12v10l4 12 9 12 10 9 11 7 16 8 33 13 15 2h19l3-4 1-24h1v30l-6 4-3 5v6l-1 2-6-2-2-3-13-4-14-2-19-8-11-3-1-3-7-2-8-5-9-7-6-4-6-5-6-9-4-9h-2l-1-8v-20l6-20 12-29 9-20z" fill="#8797A8"/>
<path transform="translate(1083,839)" d="m0 0 2 2 1 5v21l-3 24-5 7-2 6-2 18-5 19-7 20-5 13h-1v-6l3-11 3-8 2-5 3-15-1-14-5 2-6 9-3 5-9 11-6 9-2 2-1-2 2-6 9-19 7-15 15-35 12-24 2-12z" fill="#618EDE"/>
<path transform="translate(961,1196)" d="m0 0h2v2h2l-1 5-1 2 3 3-2 3h-3v2l-9 3h-3l-1 3-1-4h-14l-7-1v3h-6l-4-1-8 2 2 4 5 4 2 1v2h24l6 3v2h6v1l-10 1-4-1h-27l-8-1h-49l-3-1h-12l-4 1-5-1 3-3 7-1 1-1h20l7-1 3 1 8-2 1-2 8 1 4-1h6l2-2v-5l-10-1-1-1-7-1-1-1-12-1-3-2-18-1v-2h-5v-1l44 1h25l32-1 17-4z" fill="#23193E"/>
<path transform="translate(774,885)" d="m0 0h16l7 2 1 1v21l-4 4-9 3-5 1h-52l1-4h2l-1-3 6-1 3 1 3-3h2l1-3h2v-2h2v-2l11-3v-2l5-3h3l2-6z" fill="#1D1133"/>
<path transform="translate(584,786)" d="m0 0 9 5 11 7v2l4 2 1 3 3 1 8 15 3 3 3 7 6 10 5 7 6 4 5 5v2l6 2 11 4 11 3 16 2h20l33 1h27l18 5 7 5v3h-4v-2h-3v-2l-14-2-4-2-32-2h-75l-15-3-4-2v-2l-7-2-10-6-2-6-9-14-4-13-5-6-6-11-8-11-5-5-3-1-1-3-2-1z" fill="#88858A"/>
<path transform="translate(957,440)" d="m0 0 2 2 4 18 2 16v26l-2 27-3 19-8 49v13l-1 5 1 7 4 1v3h-2l-1 4-2 3 4 4-1 7-2 4 1 3-3 6 1 4-4 6 1 6h-2l-2 4-2 2h-3v2l-6 3-5 7h-3l-2 4-2 3h-2l1-5 7-17 10-32 3-15 7-25 8-41 6-40 2-29-1-25-3-17-2-8z" fill="#9DA7AD"/>
<path transform="translate(503,275)" d="m0 0 8 1 4 6 8 4 3 4v14l-5 17-2 17-8 17-5 6-4 8h-2l-3 9-6 9-5 7-5 12-5 10-2 3v-6l4-11 4-9 1-5h2l3-10 15-30 3-12v-7l3-16 2-6 1-8-1-4-6-4-2-5 4-6v-3z" fill="#88858B"/>
<path transform="translate(1019,1239)" d="m0 0 7 2v2l12 4v2l4 2 5 3 4 6 3 5-1 8-3 1-1 2-3 1h-8l-4-2-16-1-6-4-2-6-4-5-1-6 6-3 1-7 1-3z" fill="#1D1133"/>
<path transform="translate(531,837)" d="m0 0h11l21 4 10 2 11 3 1 3 4 2 7 8 6 10 4 17v21l-1 5-2 4-3 8-7 9-5 6-4 1v2h-2v2h-2l-2 4-8 6-9 4-6 2h-5l4-2 15-6 10-9 8-14 4-10 4-15v-16l-4-16-6-11-4-5-10-7-10-5-12-3-8-1h-13l-13 2 4-3z" fill="#807B85"/>
<path transform="translate(476,1203)" d="m0 0h7l3 1 18 1 15 2 3 1v2l5 1 3 3-2 4-7 3-9 2-19 1-8 1-6 2-9 1h-9l-13 2-8 2-10-4 3-1-1-2 13-2h12l9-2 2-5h2v-2l8-2 2-2 2 1 1-5-7-2z" fill="#1F1A2E"/>
<path transform="translate(473,1239)" d="m0 0h317l167 1 15 1v1h-490l-21 1-13 2 1-3 2-1 20-1z" fill="#95939B"/>
<path transform="translate(548,774)" d="m0 0 2 2 1 4h3l4 14 5 10 3 8 3 3 3 7 1 4 3 1 4 13 1 2-1 3-7-1-24-5-7-1 1-2 11-3v-10l-5-15-3-4v-5l-2-3-1-11 2 1 4 10-2-6v-14z" fill="#736D75"/>
<path transform="translate(393,1245)" d="m0 0h38l1 1v14l-3 1h-3l-4 2v2l-6 5h-10-3l-7-2h-2l-3-1v-2l-4-2-2-7 1-7z" fill="#1D1133"/>
<path transform="translate(590,936)" d="m0 0h2l-1 4v3l-1 5-3 13-6 7-2 10-3 4v6l-1 1v8l1 2v7l-5-3-1-7 1-6-3 1 1 15 1 4h-2v3l-3-1-1-3 2-3 1-5-3-1-2-6 4-6 1-1v-8l-5 5-5 3 1-4 5-4 4-6-1-1-1-2-3-1v-4l-2-2 1-3-3-1 3-2 9-4 9-7 1-2h2v-2h2v-2z" fill="#726C74"/>
<path transform="translate(1042,536)" d="m0 0 1 3-12 27-14 30-8 18-8 19-4 1-2-1-1 3h-2l-2 2-1-2-5 6h-2v-6l8-13v-2l2-5 6-9 4-5 1-5 5-5 3-1 4-10 8-8 2-5 8-14 8-16z" fill="#9CA7AD"/>
<path transform="translate(422,1280)" d="m0 0h89l301 1v1l-178 1-46 1h-153l-12-2z" fill="#8A8DA4"/>
<path transform="translate(474,882)" d="m0 0 1 4-1 4v24l4 13 6 11 3 4-1 2-8-5-3 3-5-3-4-7h-6l-5-3-2-1v-5l-2-3 1-5 2 1 2 6 1-5 2-12 2-4 4-2 3-4h2l1-4z" fill="#736D75"/>
<path transform="translate(638,1237)" d="m0 0 299 1 35 1 9 1 2 2h-11l-15-1-167-1h-317l-2 1h-17l4-2 10-1z" fill="#6E6976"/>
<path transform="translate(785,887)" d="m0 0h12l1 1v21l-4 4-9 3h-13l-1-7 1-1v-5l-1-3-3-1 1-3z" fill="#160E29"/>
<path transform="translate(520,318)" d="m0 0 1 3-2 17-8 17-5 6-4 8h-2l-3 9-6 9-5 7-5 12-5 10-2 3v-6l4-11 4-9 1-5h2l3-10 15-30 3-12v-7l2-8 2-2v10l1 7 3-1 5-16z" fill="#87828D"/>
<path transform="translate(536,342)" d="m0 0 2 1-11 9-5 4-6 7-3 5-11 11-9 12-8 13-6 13-4 15-6 31-3 10-1 11v10l3 16 2 7v7h-1l-6-24-1-10v-12l1-10 4-11 4-22 3-16 5-12 9-18 6-7 4-8h2l2-4 12-14 5-7h2l3-4 4 1 4-2z" fill="#8797A8"/>
<path transform="translate(473,419)" d="m0 0h1l-1 9-3 19-4 16-2 5-1 10v12l2 14 4 14 2 8 2 4 5 38 9 36 5 21 7 22 8 24-1 3-5-10-3-10v-6h-2l-9-31-4-18v-5h-2l-2-14h-2v-4h-2l-1-6h-2l-2-10-1-9-1-5 1-6-1-15-5-19-3-14v-20l4-13 3-9 5-27z" fill="#85808B"/>
<path transform="translate(397,1202)" d="m0 0 2 4 3 4v2h2l1 3 10 6 9 2 11 1-2 4-9 3-16 2-6-2-2-4-12-3-6 1 3-8 4-4 3-5 3-3h2z" fill="#1D1133"/>
<path transform="translate(466,1100)" d="m0 0 5 2 4 1 13 10 11 8-3 1-11-8-4-1-3 3-6 1-1 6-14 7-6 1-4 1-1 3-1-2 5-7 1-7 7-8 3-7 2-2h3z" fill="#1F192E"/>
<path transform="translate(782,1201)" d="m0 0h181l-1 2-8 1-11 1-49 1h-25l-48-1-24-2-14 1h-8l4-2z" fill="#6A6474"/>
<path transform="translate(452,1082)" d="m0 0 5 1 11 5 2 1v2l4 1 5 5 7 6v2l5 2 1 3 3 1 5 5 2 4h2l1 3 13 10 5 4 3 1v2h2l1 2 5 3 9 8h-3l-19-14-12-9-18-14-17-13-15-10-4-4h-2l-3 6-7 7v-3l9-12z" fill="#3E2261"/>
<path transform="translate(791,1202)" d="m0 0 18 1 12 1 48 1h25l49-1 13-1-1 2-10 2-35 1h-25l-44-1-28-1h-11l-21 2-2 1h-36l-1-1-41-1v-1l50-1 34-2z" fill="#413256"/>
<path transform="translate(1039,937)" d="m0 0 1 2-3 6-3 10-12 20-9 13-5 5-7 9h-2l-2 4-6 5-5 5-13 11-11 7-15 11-15 10-20 12-2-1 24-15 19-13 19-14 12-11 8-8 6-8h2l2-5 10-13 10-15 13-21z" fill="#6064A1"/>
<path transform="translate(981,1085)" d="m0 0 3 1 6 10 4 5-1 2-8-4-2-4-2 4-3 2-9-1v-2l-19 14-15 12-18 13-18 12h-2l-1 3-4 3-11 3 3-3 11-7h2v-2l4-2 1-2 9-5 11-9 12-9 13-10 15-11z" fill="#3D2160"/>
<path transform="translate(704,877)" d="m0 0h31l35 1 1 1 22 3v1h-123l-29 1-3 1 2-4 19-1 14-1h16z" fill="#6E6975"/>
<path transform="translate(450,1121)" d="m0 0h1v5l-6 9-1 3h-2l-2 4-5 6h-3l-12 18-13 18-10 14-1 3h-2v3h-2v3l-3 1-1-4h2l1-6 5-7 3-5 3-1 2-5 6-11 5-3 4-8 5-6 5-9 3-5h2l1-3h2l2-4 2-3h2l2-5h4z" fill="#23193D"/>
<path transform="translate(361,506)" d="m0 0 7 1 5 3 6 7 2 1 8 18 8 15 3 7-1 3-6-10-12-19-5-6v-2h-2v-2l-4-2-4-1-3 5-2 4-5-3-2-3v-5l2-2 3-7z" fill="#6D6887"/>
<path transform="translate(475,1201)" d="m0 0h138v1l-12 1v2l-8 1h-89l-18-1-11-2z" fill="#524961"/>
<path transform="translate(966,1105)" d="m0 0 5 1 2 5 4 2 5 6 5 15 7 11 4 7v3l3 1v2h2l3 6 5 9 2 3v3h2l9 17 4 6-1 2-6-7-9-17-3-4-3-5-3-4-4-8-4-5-7-13-6-8v-2h-2l-5-10-6-7v-2h-12l-2-1 1-3z" fill="#201A34"/>
<path transform="translate(368,865)" d="m0 0 2 3 5 16 4 6 4 4 10 21 5 8 3 5 9 13 4 6 3 6-3-1-5-7-5-5-4-5-5-7-3-7v-3l-4-1-3-7-4-5-4-4-2-6-7-14-1-13z" fill="#77707F"/>
<path transform="translate(1054,975)" d="m0 0h2l-2 6-9 19-12 21-8 12-14 19-14 15-7 8-1-3 4-4 1-3 5-5 6-8 6-10 11-12 8-13h2l2-4 4-7 4-11 1-4h2v-3h2l2-4 4-7z" fill="#6792DF"/>
<path transform="translate(1076,824)" d="m0 0 5 4 3 5 1 8-4-1v7l-3 10-4 7-10 21-1-4 4-10 3-7v-14l-1-4h2l3-9 2-7z" fill="#8897A8"/>
<path transform="translate(629,235)" d="m0 0h66l-1 2-77 1-26 3-8 3-10 4-7 2-4 1h-10l2-2 15-6 17-4 26-3z" fill="#B1B4B5"/>
<path transform="translate(1072,477)" d="m0 0h2l6 17 2 11 1 11 1 79v71h-1l-1-31-1-105-1-18-6-21z" fill="#87C9DA"/>
<path transform="translate(471,1240)" d="m0 0h256v1l-245 1-21 1-13 2 1-3 2-1z" fill="#969A9F"/>
<path transform="translate(481,1112)" d="m0 0 4 1 11 8 7 3 12 10 9 6-3 1-12-8v-2l-5-2-6-4-4-1v-2l-5-2-6-2-2 4-14 5-5 6-9 4-7-2 1-3 6-3h5l6-4 6-2 2-6 7-3z" fill="#160E29"/>
<path transform="translate(638,1237)" d="m0 0 99 1v1l-264 1-2 1h-17l4-2 10-1z" fill="#6D697D"/>
<path transform="translate(991,1203)" d="m0 0h7l6 2 1 5 2 1v5l-7 4h-11l-5-3v-6z" fill="#130F21"/>
<path transform="translate(313,1299)" d="m0 0 1 3-3 7-2 7-1 8 3 1v5h2l3 5v2l4 2 3 4v2l3 1v2l11 3 13 4v2l10 1v1h-11l-17-4-11-7-9-9-6-12-1-8 5-13z" fill="#6E72A3"/>
<path transform="translate(953,569)" d="m0 0h1l-1 10-6 29-13 44-10 30-10 21-2 1 2-6 4-9 6-16 7-22 6-18 9-35 6-28z" fill="#67ACD4"/>
<path transform="translate(720,1201)" d="m0 0h58v1l-16 2-17 1h-50l-15-1-3-2z" fill="#59549F"/>
<path transform="translate(793,887)" d="m0 0 5 1v21l-4 4-5 2h-8l2-1 2-5 1-5 2-11z" fill="#151024"/>
<path transform="translate(765,884)" d="m0 0h26l4 2h-21l-4 1-2 5-6 3h-2v2l-9 3h-2v2h-2v2l-3 3h-2l-1 3-3 1-6-1-2-1 2-2h5l1-2-1-3h-2v-3l10-3 7-2 7-3 4-5h2z" fill="#211A35"/>
<path transform="translate(976,1087)" d="m0 0 2 1-16 11-17 13-11 8-18 14-11 8-2-1 3-3h2l1-3 12-9 8-9 6-4h2v-2l7-4 9-7 7-4 3-1 1-2z" fill="#45548F"/>
<path transform="translate(954,1203)" d="m0 0 2 1-7 2-4 1-35 1h-25l-44-1-28-1h-9l-2-2h19l48 1h25l49-1z" fill="#33204F"/>
<path transform="translate(470,526)" d="m0 0 3 4 5 38 9 36 5 21 7 22 8 24-1 3-5-10-3-10v-6h-2l-9-31-4-18v-5h-2l-3-14-3-13-3-21z" fill="#8797A8"/>
<path transform="translate(362,458)" d="m0 0h1v11l-1 13 1 8-3 10h-5v9l-1 6h-1v-15l2-20 6-21z" fill="#89899A"/>
<path transform="translate(934,845)" d="m0 0 5 2 8 8 6 10 6 15 2 9v22l-4 15-7 13-8 10-8 7-6 3-2-1 11-7 9-10 8-15 4-13v-21l-4-17-5-12-4-6-7-8z" fill="#BC7C1E"/>
<path transform="translate(573,1169)" d="m0 0 7 1 14 7 9 3 23 9 16 5 15 2 9 2 8 4-4 1-15-2-21-7-29-10-30-13z" fill="#6B99DF"/>
<path transform="translate(463,1237)" d="m0 0h175v1l-170 1-14 2-5 1-1 2-1-5z" fill="#3E2060"/>
<path transform="translate(782,1201)" d="m0 0h66v1l7 1 1 2h-35l-24-2-14 1h-8l4-2z" fill="#818089"/>
<path transform="translate(584,786)" d="m0 0 9 5 11 7v2l4 2 1 3 3 1 6 11-1 2-6-7-1 3 1 4-2 1-6-11-8-11-5-5-3-1-1-3-2-1z" fill="#87828C"/>
<path transform="translate(452,1082)" d="m0 0 5 1 11 5 2 1v2l4 1 5 5 7 6v2l5 2 1 3 3 1 5 5 2 4h2l-1 2-3-2v-2l-4-2-12-10-11-7-6-4v-2l-5-2-6-4-4-2z" fill="#45548F"/>
<path transform="translate(406,1024)" d="m0 0 7 6 4 5 5 5 8 9 4 8 5 5 4 5 4 7-2 1-7-8-10-11-13-17-9-13z" fill="#6994DE"/>
<path transform="translate(471,295)" d="m0 0 2 1-6 5h-2v2l-5 3-1 2h-2l-2 4-8 7-7 8-10 10-3 4h-2l-2 5-3 4-4-1 11-14 12-13 10-10 14-11z" fill="#C0C2C2"/>
<path transform="translate(640,885)" d="m0 0h6l2 9-3 3-2 5-1 7-4-1-1-4h-2v-9l2-8z" fill="#24193F"/>
<path transform="translate(677,875)" d="m0 0h68l16 2v1h-60l-4-1-10 1-28 1-1-2z" fill="#807B85"/>
<path transform="translate(839,239)" d="m0 0 15 2 20 6 15 6-3 3-6-2-4-3-7 2-9-4-9-6-12-3z" fill="#BBBDBD"/>
<path transform="translate(975,1236)" d="m0 0 17 2 2 9 8 7 5 5 4 9-1 4-5-10-8-10-11-9-5-2-9-1-35-1v-1l36-1z" fill="#342050"/>
<path transform="translate(359,802)" d="m0 0 11 1-4 3-4 4v4l-3 15-3-1-3-4v-10h1l2-10z" fill="#6C6787"/>
<path transform="translate(552,1229)" d="m0 0 13 1 9 1 8-1v2h3v2l-12 1-14-1-5-1h-5l-1 1h-28v-1l10-2z" fill="#23193D"/>
<path transform="translate(980,1088)" d="m0 0h5l7 11 2 4-7-3-3-3-1-2-2 4-3 2-9-1-1-3z" fill="#2B1F41"/>
<path transform="translate(356,900)" d="m0 0 5 5 1 5 3 1 4 12v14l-2-2v-3h-3l-8-29z" fill="#6063A3"/>
<path transform="translate(1075,1232)" d="m0 0h2l9 14 10 16v2h2l7 11 8 12-1 3-9-13-5-5-8-15-7-8-3-5-6-9z" fill="#2F2147"/>
<path transform="translate(375,965)" d="m0 0h2l5 10v2h2l6 13 4 10v3l4 2 5 6 2 1 1 5-2 1-1 3-10-17-8-16-10-22z" fill="#6993DE"/>
<path transform="translate(589,1201)" d="m0 0h24v1l-12 1v2l-8 1h-43l2-1v-2l36-1z" fill="#6F6B79"/>
<path transform="translate(422,1280)" d="m0 0h89v1l-53 1v1h-28l-7-1z" fill="#B1B5B7"/>
<path transform="translate(468,1238)" d="m0 0h117v1l-112 1-2 1h-17l4-2z" fill="#6C6875"/>
<path transform="translate(469,531)" d="m0 0 2 1 1 3 3 24 3 16v5l-1-4h-2l-1-6h-2l-2-10-1-9-1-5 1-6z" fill="#7D7684"/>
<path transform="translate(709,919)" d="m0 0h48l-1 2-14 2h-17l-6-2-7 2-4-1z" fill="#8E8F92"/>
<path transform="translate(1066,1214)" d="m0 0 4 4 14 22 11 17 17 26-1 2-13-19v-2h-2l-12-20-13-19-4-7z" fill="#9D9CA0"/>
<path transform="translate(870,976)" d="m0 0 10 1 3 3-3 6-15-1-3-4v-2l6-1z" fill="#89868B"/>
<path transform="translate(320,1341)" d="m0 0 3 2v2l3 1v2l11 3 13 4v2l10 1v1h-11l-17-4-9-6-3-6z" fill="#696797"/>
<path transform="translate(983,1241)" d="m0 0 4 2 11 9 9 11 7 16v2l-3-1-3-8-9-13-8-10-8-4-8-2v-1z" fill="#8A8990"/>
<path transform="translate(352,813)" d="m0 0h1l1 12v37l-1 20-2-3-1-22z" fill="#412463"/>
<path transform="translate(413,354)" d="m0 0 1 3-9 13-9 14-4 5-11 22-2-1 13-26 12-18z" fill="#C5C6C7"/>
<path transform="translate(475,1201)" d="m0 0 35 1 12 1v2l-9 1-27-1-11-2z" fill="#7D7984"/>
<path transform="translate(470,526)" d="m0 0 3 4 5 38 5 20-1 6h-1l-3-14-3-13-3-21z" fill="#8696A7"/>
<path transform="translate(408,1178)" d="m0 0 1 3-12 17-1 3h-2v3h-2v3l-3 1-1-4h2l1-6 6-8 8-8z" fill="#21173B"/>
<path transform="translate(1072,477)" d="m0 0h2l6 17 2 11 1 15h-2l-2-14-4-10z" fill="#75CEE5"/>
<path transform="translate(857,966)" d="m0 0 6 1 4 2 3 2v3 2h-2l-3-4-4-2-1 3v5l-4 1-6-3v-6l7 1-1-4z" fill="#89868B"/>
<path transform="translate(474,882)" d="m0 0 1 4-1 4v24l4 13 6 11-1 2-6-9-5-12-2-10v-11z" fill="#807B85"/>
<path transform="translate(1048,917)" d="m0 0 2 1-9 19-3 3-12 19-4 5-1-5 14-19 2-4 2-1 8-16z" fill="#7B728B"/>
<path transform="translate(938,636)" d="m0 0 1 4-9 30-7 19-5 10h-2l2-6 7-17 10-30z" fill="#8797A8"/>
<path transform="translate(1123,1330)" d="m0 0 1 3-5 9-9 8-10 5-6 2-4-1 5-3 11-4 6-5 3-5 4-3h2z" fill="#9D9FAA"/>
<path transform="translate(467,1124)" d="m0 0m-3 1h3l-2 4-5 5-8 3-6-2 1-3 6-3h5z" fill="#150E28"/>
<path transform="translate(639,1193)" d="m0 0 11 2 16 3 8 4-4 1-15-2-15-5z" fill="#6894DF"/>
<path transform="translate(439,327)" d="m0 0 1 4-16 16-3 4-4 1-3 9h-2l-1 3-2-1 4-6 2-6 5-2 5-8 5-5z" fill="#7E7883"/>
<path transform="translate(492,1170)" d="m0 0 3 1-10 8-9 9-1-5v-7l8-2 5-1z" fill="#1E1531"/>
<path transform="translate(868,961)" d="m0 0 18 4 16 1v2l-28 1-3-1-1-4-2-1z" fill="#8C898C"/>
<path transform="translate(497,277)" d="m0 0h2v2h-2l2 4-2 3-15 5-4-1 17-12z" fill="#969699"/>
<path transform="translate(688,873)" d="m0 0h48l2 2-9 1h-40l-2-2z" fill="#838187"/>
<path transform="translate(581,240)" d="m0 0 4 1-12 5-7 4-4 1h-10l2-2 15-6z" fill="#B6B9B9"/>
<path transform="translate(385,1235)" d="m0 0 6 2v5l-3 2-11 1-3-1v-2h4l1-3 5-3z" fill="#2D2144"/>
<path transform="translate(612,236)" d="m0 0h9l-4 2-26 3-8 3-10 4-4-1 8-4 8-3 1-1z" fill="#B2B5B6"/>
<path transform="translate(483,1229)" d="m0 0h9l5 1h14l8 2-4 2-9-1-8 1-8-2-6 1-3-1h-4l1-2z" fill="#23193E"/>
<path transform="translate(697,876)" d="m0 0 4 2-15 2h-19l-8 1h-15l4-2 12-1 33-1z" fill="#78717F"/>
<path transform="translate(449,312)" d="m0 0 2 1-16 16-9 11-5 9-5 1 6-9 13-15z" fill="#FDFDFD"/>
<path transform="translate(466,1100)" d="m0 0 5 2 4 1 3 3-5 2h-5v-2l-6 2-4 6-2 1 2-4 3-7 2-2h3z" fill="#211A37"/>
<path transform="translate(471,1240)" d="m0 0h36v1l-46 2-13 2 1-3 2-1z" fill="#98999D"/>
<path transform="translate(378,412)" d="m0 0 1 4v7l-5 11h-2l-2 4-2-1 5-13z" fill="#8A888F"/>
<path transform="translate(360,495)" d="m0 0 2 1-1 11-3 4-2 5-3 2 1-16 3-3 3 1z" fill="#776D90"/>
<path transform="translate(438,1106)" d="m0 0 2 3-6 9h-2l-1 4-5 6-6 10h-2l-1 3-1-2 20-30z" fill="#9EA0AC"/>
<path transform="translate(477,464)" d="m0 0 2 2-2 14v30l-2-3-2-18 1-13z" fill="#57E3FE"/>
<path transform="translate(562,250)" d="m0 0h9v4l-5 2h-10l-3-1v-3z" fill="#8F9093"/>
<path transform="translate(372,1237)" d="m0 0 2 1-5 9-8 8-2 4h-2l2-5 1-3h2l-1-3h2v-3h2v-3z" fill="#2D2144"/>
<path transform="translate(782,1201)" d="m0 0h30l8 2v1h-11l-18-1-8 1h-8l4-2z" fill="#6A6881"/>
<path transform="translate(851,953)" d="m0 0h5l12 8v2l3 1-2 2-14-7-4-4z" fill="#848287"/>
<path transform="translate(473,413)" d="m0 0 2 2-4 18-2 11-2-1v-10l1-10h2l1-7z" fill="#80788A"/>
<path transform="translate(394 1e3)" d="m0 0 4 2 5 6 2 1 1 5-2 1-1 3-9-15z" fill="#6592E0"/>
<path transform="translate(365,932)" d="m0 0h2l5 14 4 17h-2l-9-27z" fill="#6595E2"/>
<path transform="translate(460,488)" d="m0 0 1 2h2l2 14 4 14 2 14-2-1-5-22-4-17z" fill="#847D8B"/>
<path transform="translate(1083,874)" d="m0 0h2l-2 17-4 6h-1v-9l2-4 2-8z" fill="#A5ADB4"/>
<path transform="translate(494,638)" d="m0 0h2l8 25 3 8-1 3-5-10-3-10v-6h-2z" fill="#8693A4"/>
<path transform="translate(1090,1251)" d="m0 0 3 3 19 29-1 2-13-19v-2h-2l-6-10z" fill="#A8A7AA"/>
<path transform="translate(984,1235)" d="m0 0 7 1 7 3 1 3-3 3 2 5-4-2-2-5v-5h-7l-2-2z" fill="#23193E"/>
<path transform="translate(902,967)" d="m0 0h5v2l-8 3h-6l-7-2-5-1v-1z" fill="#838187"/>
<path transform="translate(468,299)" d="m0 0 2 1-13 13-2 3-5 2-4 2 6-7 5-5h2l1-3 5-2v-2z" fill="#89868D"/>
<path transform="translate(325,1350)" d="m0 0 5 1 5 2 14 3 11 2v1h-11l-17-4-7-4z" fill="#88899F"/>
<path transform="translate(805,1229)" d="m0 0 7 1 3 2-9-1-4 2-23 1 2-2 3-1 17-1z" fill="#23193E"/>
<path transform="translate(543,338)" d="m0 0m-1 1m-1 1m-2 1h2l-2 4-13 10-10 10v-3l8-9 13-10z" fill="#9EA8AE"/>
<path transform="translate(539,255)" d="m0 0 3 1-2 3 2 1-6 3h-8l-6 1 4-3z" fill="#B3B6B8"/>
<path transform="translate(984,1088)" d="m0 0 4 5 6 8-1 2-8-4-1-5h-2l1-4z" fill="#494555"/>
<path transform="translate(360,912)" d="m0 0h4l2 7-1 9h-2l-3-11z" fill="#47447F"/>
<path transform="translate(499,1122)" d="m0 0 6 4 13 10 6 4-3 1-12-8v-2l-5-2-5-5z" fill="#1B1131"/>
<path transform="translate(1075,1232)" d="m0 0h2l8 12v3l-4-2-7-10z" fill="#241B3B"/>
<path transform="translate(312,1335)" d="m0 0 7 3 4 9-1 2-10-10z" fill="#8685A0"/>
<path transform="translate(427,1259)" d="m0 0 5 1-4 7-3 3-1-3-5 1 3-5z" fill="#2A233E"/>
<path transform="translate(313,1299)" d="m0 0 1 3-3 7-2 7-2 11-2-3 1-9z" fill="#BBBDC8"/>
<path transform="translate(573,1169)" d="m0 0 7 1 14 7 7 2-1 3-27-12z" fill="#759EDC"/>
<path transform="translate(408,1173)" d="m0 0h3l1 4-3 3h-2l-5 5 2-5zm-8 12 2 1-5 4 2-4z" fill="#261B40"/>
<path transform="translate(875,1161)" d="m0 0 3 1-13 5-8 4-2-1 6-5 9-3z" fill="#73A0DD"/>
<path transform="translate(899,356)" d="m0 0 8 6 8 7 3 3-1 2-11-10-7-5z" fill="#60A8D1"/>
<path transform="translate(393,1195)" d="m0 0 3 3v3h-2v3h-2v3l-3 1-1-4h2l1-6z" fill="#261B3F"/>
<path transform="translate(1112,1285)" d="m0 0 4 4 7 14 1 6h-2l-3-10-4-6v-3h-2z" fill="#A5A5A9"/>
<path transform="translate(996,1250)" d="m0 0 4 2 4 5 5 5 2 6-1 4-5-10-8-10z" fill="#2F1F4A"/>
<path transform="translate(378,1221)" d="m0 0 3 1-3 10h-2l-1 4h-3l2-7 3-3v-3z" fill="#2D2144"/>
<path transform="translate(378,1201)" d="m0 0 2 1 1 4h-2l-1 2-4-1-2 4-5 5 2-4 6-9z" fill="#706A7E"/>
<path transform="translate(1061,956)" d="m0 0h1l-1 8-4 10h-1v-6l2-9z" fill="#6693DE"/>
<path transform="translate(983,1241)" d="m0 0 4 2 8 7h-3l-9-5-8-2v-1z" fill="#85838B"/>
<path transform="translate(820,1215)" d="m0 0h6v2l3 1-2 1v2l-5 1-4-5h2z" fill="#1F1A2E"/>
<path transform="translate(428,1156)" d="m0 0h1v6l-5 8-4 1 1-4 3-3 2-5z" fill="#1A112E"/>
<path transform="translate(925,1055)" d="m0 0 3 1-17 10-4 4-2-1 5-5z" fill="#726A91"/>
<path transform="translate(729,911)" d="m0 0h2v2h-2l-1 4-12 1 1-3 9-2z" fill="#211A35"/>
<path transform="translate(900,492)" d="m0 0h1l1 12-2 7-2-3v-7z" fill="#51CEF7"/>
<path transform="translate(378,412)" d="m0 0 1 4-4 10-3 7-1 2h-2l3-9z" fill="#B4B7B8"/>
<path transform="translate(385,1213)" d="m0 0 4 1v2l-4 1-1 5-2 2-3-3z" fill="#251B3E"/>
<path transform="translate(947,1177)" d="m0 0 5 1 2-1 2 6v5l-5-5z" fill="#453F53"/>
<path transform="translate(448,1125)" d="m0 0h2l-2 5-5 7h-2l-2 4-2 1 2-4 6-9z" fill="#31204B"/>
<path transform="translate(451,1092)" d="m0 0 5 1-1 4-3 3h-5z" fill="#1F1535"/>
<path transform="translate(587,241)" d="m0 0 4 1-8 4-7 3-10 1 1-2 12-3z" fill="#A5A7A9"/>
<path transform="translate(451,1241)" d="m0 0h18v1l-21 3 1-3z" fill="#908F97"/>
<path transform="translate(573,242)" d="m0 0 2 1-11 6h-7l4-3z" fill="#FDFDFD"/>
<path transform="translate(683,1206)" d="m0 0h18v1l-6 1v1l-7 1-4-2z" fill="#2D2045"/>
<path transform="translate(492,1170)" d="m0 0 3 1-10 8-6 5 2-5 3-1v-3z" fill="#585367"/>
<path transform="translate(1029,951)" d="m0 0v3l-6 10-2-3 2-5z" fill="#78718A"/>
<path transform="translate(356,900)" d="m0 0 5 5 1 6-3 2-3-10z" fill="#6F9CDD"/>
<path transform="translate(585,240)" d="m0 0 3 1-11 6-8 1 4-3z" fill="#ADB1B2"/>
<path transform="translate(416,1276)" d="m0 0 4 2v1l-5 1-1 2-8 2v-2z" fill="#2D2044"/>
<path transform="translate(1080,813)" d="m0 0 3 1-1 10-5-5 2-5z" fill="#A4ADB2"/>
<path transform="translate(413,354)" d="m0 0 1 3-9 13-1-4z" fill="#B6B9B9"/>
<path transform="translate(451,316)" d="m0 0 2 1-9 10-4 1 2-4z" fill="#7C7682"/>
<path transform="translate(436,1250)" d="m0 0m-4 1 5 1-1 4-4 4-1-8z" fill="#261D3A"/>
<path transform="translate(1066,1214)" d="m0 0 4 4 7 11v2h-2l-6-10-3-4z" fill="#ADACAF"/>
<path transform="translate(443,1136)" d="m0 0 1 2h-2l-2 4-5 6-2-4 4-4h2z" fill="#291E40"/>
<path transform="translate(1048,917)" d="m0 0 2 1-9 19h-1v-5l6-11z" fill="#78718F"/>
<path transform="translate(520,703)" d="m0 0 3 4 6 11-1 3-3-4-5-10z" fill="#838998"/>
<path transform="translate(465,510)" d="m0 0 2 2 3 12 1 8-2-1-4-18z" fill="#817A8A"/>
<path transform="translate(439,327)" d="m0 0v3l-7 8h-2l-2 4-3 1v-2l5-5z" fill="#878389"/>
<path transform="translate(320,1341)" d="m0 0 3 2v2l3 1v2l7 2v1l-9-1-4-7z" fill="#68699D"/>
<path transform="translate(470,1227)" d="m0 0m-5 0 6 2 2 2h-12v-3z" fill="#211938"/>
<path transform="translate(876,1213)" d="m0 0h7l2 3-1 2h-5l-3-3z" fill="#1D1133"/>
<path transform="translate(782,1201)" d="m0 0h12l-3 2-8 1h-8l4-2z" fill="#6578AA"/>
<path transform="translate(1101,1351)" d="m0 0 3 1h-2v2l-8 3-4-1 5-3z" fill="#78769B"/>
<path transform="translate(484,1111)" d="m0 0 4 2 11 8-3 1-11-8z" fill="#201735"/>
<path transform="translate(366,923)" d="m0 0h1l2 10-1 4-1-5h-3l-1-4h2z" fill="#5D5EC1"/>
<path transform="translate(541,742)" d="m0 0 5 5 5 7-3 1-7-10z" fill="#7F7887"/>
<path transform="translate(494,638)" d="m0 0h2l4 13v3h-2v-6h-2z" fill="#8790A0"/>
<path transform="translate(1114,1341)" d="m0 0 1 2-5 7-5 3-3-1h2v-2l8-6z" fill="#8B8DA3"/>
<path transform="translate(994,1251)" d="m0 0 4 1 3 3 1 7-4-4-4-5z" fill="#A1A1A4"/>
<path transform="translate(559,1163)" d="m0 0 7 1 7 3v2l-5-1-9-4z" fill="#85B2DD"/>
<path transform="translate(709,919)" d="m0 0h11l-3 3-5 1-4-1z" fill="#8F9093"/>
<path transform="translate(1085,1246)" d="m0 0 4 5 3 5-1 2-8-9v-2z" fill="#2D2044"/>
<path transform="translate(451,1088)" d="m0 0 1 4-7 8-3 2 2-4z" fill="#BBBAC0"/>
<path transform="translate(660,878)" d="m0 0m-5 0 5 1-1 2h-15l4-2z" fill="#78717F"/>
<path transform="translate(697,876)" d="m0 0 4 2-15 2-2-1v-2h9z" fill="#756F7A"/>
<path transform="translate(416,350)" d="m0 0 2 1-4 10h-2l-1 3-2-1 4-6 2-6z" fill="#949499"/>
<path transform="translate(402,1161)" d="m0 0 1 2-5 9-5 6v-3z" fill="#B3B2B8"/>
<path transform="translate(567 1e3)" d="m0 0 2 4 1 4h-2v3l-3-1-1-3z" fill="#736D75"/>
<path transform="translate(362,462)" d="m0 0h1v7l-1 4-3 1 1-8z" fill="#858292"/>
<path transform="translate(895,1150)" d="m0 0 2 1-5 4-11 3 3-3z" fill="#2F234C"/>
<path transform="translate(433,1146)" d="m0 0 1 4h-2l-1 4-1 2h-3l2-5z" fill="#3B205C"/>
<path transform="translate(649,927)" d="m0 0 1 2-2 5-2 1-2-1v-5z" fill="#838187"/>
<path transform="translate(780,822)" d="m0 0m-1 1m-4 1h4l-1 3 2 2-11-2 2-2z" fill="#96999A"/>
<path transform="translate(468,444)" d="m0 0h1l-1 13-1 3h-2l-1 2 2-9z" fill="#837C8B"/>
<path transform="translate(851,795)" d="m0 0 2 1-3 1-1 3-9 1 4-3z" fill="#8F9093"/>
<path transform="translate(424,341)" d="m0 0v3l-4 6-4-1 5-6z" fill="#C9CACA"/>
<path transform="translate(449,931)" d="m0 0 5 1-1 5-3-1v-2h-2z" fill="#736D75"/>
<path transform="translate(1082,824)" d="m0 0" fill="#BABCBC"/>
</svg>
